<svg width="638" height="596" viewBox="0 0 638 596" fill="none" xmlns="http://www.w3.org/2000/svg">
<path d="M88.37 276.38C82.31 279.05 78.395 284.405 77.24 290.36L73.64 292.175L48.965 243.32L4.80498 265.625L7.96998 271.895C13.925 273.05 19.28 276.98 21.95 283.025C25.865 291.89 22.445 302.48 14.09 307.385C4.41499 313.055 -7.90001 309.335 -12.88 299.465C-15.67 293.93 -15.535 287.705 -13.06 282.515L-16.225 276.245L-64.765 300.755L-12.91 403.43C-10.585 408.02 -4.99001 409.865 -0.400009 407.54L105.02 354.29L84.26 313.19L87.86 311.375C93.05 313.85 99.29 313.985 104.81 311.195C114.665 306.215 118.4 293.915 112.73 284.225C107.825 275.87 97.235 272.45 88.37 276.365V276.38Z" fill="#EBEBEB"/>
<path d="M246.845 602.525C251.555 600.44 254.615 596.285 255.515 591.65L258.32 590.24L277.52 628.25L311.885 610.895L309.425 606.005C304.79 605.105 300.635 602.06 298.55 597.335C295.505 590.435 298.16 582.2 304.67 578.39C312.2 573.98 321.77 576.875 325.655 584.555C327.83 588.86 327.71 593.705 325.79 597.755L328.25 602.645L366.02 583.565L325.67 503.675C323.87 500.105 319.505 498.665 315.935 500.48L233.915 541.91L250.07 573.89L247.265 575.3C243.23 573.38 238.37 573.275 234.065 575.435C226.385 579.305 223.49 588.89 227.9 596.42C231.71 602.915 239.96 605.585 246.845 602.54V602.525Z" fill="#EBEBEB"/>
<path d="M-35.14 534.77C-31.57 534.335 -28.675 532.175 -27.13 529.25L-24.97 528.875L-19.84 558.2L6.68 553.565L6.02 549.8C3.11 548.255 0.935 545.375 0.5 541.79C-0.13 536.555 3.32 531.59 8.435 530.36C14.375 528.935 20.18 532.82 21.215 538.745C21.8 542.06 20.735 545.285 18.635 547.595L19.295 551.36L48.425 546.275L37.655 484.64C37.175 481.88 34.55 480.035 31.79 480.53L-31.495 491.585L-27.19 516.26L-29.35 516.635C-31.66 514.535 -34.885 513.47 -38.2 514.055C-44.125 515.09 -48.01 520.91 -46.585 526.835C-45.355 531.965 -40.375 535.415 -35.155 534.77H-35.14Z" fill="#EBEBEB"/>
<path d="M532.025 466.01C534.71 465.68 536.885 464.06 538.055 461.855L539.675 461.57L543.53 483.635L563.48 480.155L562.985 477.32C560.795 476.165 559.16 473.99 558.83 471.29C558.35 467.36 560.945 463.61 564.8 462.68C569.27 461.615 573.65 464.525 574.415 468.98C574.85 471.485 574.055 473.9 572.465 475.64L572.96 478.475L594.89 474.65L586.79 428.27C586.43 426.2 584.45 424.805 582.38 425.165L534.755 433.49L537.995 452.06L536.375 452.345C534.635 450.755 532.205 449.96 529.715 450.395C525.26 451.175 522.335 455.555 523.415 460.01C524.345 463.865 528.08 466.46 532.025 465.98V466.01Z" fill="#F5F5F5"/>
<path d="M444.455 11.555C443.135 13.925 443.165 16.64 444.26 18.875L443.54 20.36L423.425 10.49L414.5 28.67L417.08 29.945C419.315 28.85 422.03 28.82 424.4 30.14C427.865 32.075 429.365 36.38 427.835 40.04C426.065 44.285 421.13 46.1 417.08 44.105C414.8 42.98 413.315 40.91 412.835 38.615L410.255 37.34L400.445 57.32L442.7 78.08C444.59 79.01 446.87 78.23 447.8 76.34L469.115 32.945L452.195 24.635L452.915 23.15C455.225 22.67 457.295 21.185 458.405 18.905C460.4 14.84 458.585 9.90498 454.34 8.14998C450.68 6.63498 446.375 8.11998 444.44 11.585L444.455 11.555Z" fill="#F5F5F5"/>
<path d="M543.185 205.805C541.19 211.91 542.525 218.21 546.08 222.89L545.06 226.67L493.805 212.885L481.34 259.22L487.925 260.99C492.62 257.435 498.905 256.115 505.01 258.095C513.935 261.005 519.38 270.32 517.52 279.53C515.36 290.195 504.695 296.675 494.36 293.885C488.555 292.325 484.145 288.185 482 283.04L475.415 281.27L461.72 332.195L569.435 361.16C574.25 362.45 579.2 359.6 580.505 354.785L610.25 244.19L567.125 232.595L568.145 228.815C573.29 226.655 577.43 222.245 578.99 216.455C581.78 206.105 575.3 195.455 564.635 193.295C555.425 191.42 546.11 196.865 543.2 205.805H543.185Z" fill="#EBEBEB"/>
<path d="M254.569 135.625L263.599 121.135C273.289 120.13 282.814 116.5 291.094 110.125C314.914 91.7802 319.354 57.6102 301.009 33.7902C282.664 9.97016 248.494 5.53016 224.674 23.8752C200.854 42.2202 196.414 76.3902 214.759 100.21C222.424 110.155 232.834 116.71 244.114 119.65H244.084L254.554 135.625H254.569Z" fill="white"/>
<path d="M254.569 135.625C254.569 135.625 254.344 135.235 253.894 134.515C253.414 133.765 252.769 132.73 251.929 131.395C250.174 128.65 247.624 124.66 244.324 119.5L244.099 119.92H244.129H246.154L244.204 119.395C237.364 117.55 228.709 113.785 220.864 106.33C216.934 102.655 213.349 98.0053 210.454 92.5753C207.544 87.1603 205.384 80.8903 204.514 74.1103C202.669 60.6103 206.314 44.8153 216.589 32.5453C226.639 20.2453 243.469 12.2503 260.944 13.3303C269.809 13.9003 278.449 16.4503 285.724 20.9803C293.029 25.4053 299.074 31.4653 303.439 38.3053C307.834 45.1303 310.369 52.7803 311.314 60.2653C312.259 67.7803 311.584 75.1603 309.694 81.8353C305.884 95.2453 297.409 105.49 288.514 111.535C279.589 117.73 270.499 120.115 263.599 120.88H263.464L263.404 121C260.569 125.665 258.394 129.28 256.864 131.785C256.144 132.985 255.574 133.93 255.169 134.62C254.779 135.265 254.584 135.625 254.584 135.625C254.584 135.655 254.779 135.355 255.169 134.755C255.589 134.095 256.174 133.195 256.924 132.04C258.529 129.535 260.839 125.935 263.824 121.27L263.629 121.39C270.604 120.715 279.829 118.405 288.949 112.195C298.024 106.12 306.724 95.7553 310.669 82.1053C312.634 75.3253 313.354 67.7803 312.409 60.1153C311.464 52.4653 308.899 44.6503 304.414 37.6603C299.974 30.6703 293.809 24.4753 286.339 19.9303C278.914 15.2953 270.079 12.6853 261.004 12.1003C243.139 10.9903 225.934 19.1953 215.689 31.7803C210.499 38.0353 206.899 45.2353 204.919 52.5553C202.924 59.8903 202.549 67.3153 203.494 74.2303C204.424 81.1453 206.644 87.5203 209.644 93.0103C212.629 98.5153 216.304 103.21 220.324 106.915C228.334 114.43 237.154 118.135 244.084 119.92L244.144 119.38H244.114H243.619L243.889 119.785C247.354 124.945 250.039 128.92 251.884 131.665C252.754 132.94 253.429 133.93 253.909 134.65C254.359 135.31 254.584 135.64 254.584 135.61L254.569 135.625Z" fill="#263238"/>
<path d="M228.244 68.5452L236.359 59.5752L253.579 73.3902L279.154 44.0352L287.509 52.1802L253.189 89.9352L228.244 68.5452Z" fill="#FFB667"/>
<path d="M257.06 143V211.58H246.71C241.865 205.325 234.305 201.29 225.785 201.29C211.145 201.29 199.295 213.155 199.295 227.78C199.295 242.405 211.16 254.27 225.785 254.27C234.305 254.27 241.865 250.235 246.71 243.98H257.06V314.03H331.85V304.355C325.595 299.51 321.56 291.95 321.56 283.43C321.56 268.79 333.425 256.94 348.05 256.94C362.675 256.94 374.54 268.805 374.54 283.43C374.54 291.95 370.505 299.51 364.25 304.355V314.03H432.32V143H257.06Z" fill="#FFB667"/>
<path opacity="0.4" d="M257.06 143V211.58H246.71C241.865 205.325 234.305 201.29 225.785 201.29C211.145 201.29 199.295 213.155 199.295 227.78C199.295 242.405 211.16 254.27 225.785 254.27C234.305 254.27 241.865 250.235 246.71 243.98H257.06V314.03H331.85V304.355C325.595 299.51 321.56 291.95 321.56 283.43C321.56 268.79 333.425 256.94 348.05 256.94C362.675 256.94 374.54 268.805 374.54 283.43C374.54 291.95 370.505 299.51 364.25 304.355V314.03H432.32V143H257.06Z" fill="black"/>
<path d="M262.76 143V211.58H252.41C247.565 205.325 240.005 201.29 231.485 201.29C216.845 201.29 204.995 213.155 204.995 227.78C204.995 242.405 216.86 254.27 231.485 254.27C240.005 254.27 247.565 250.235 252.41 243.98H262.76V314.03H337.55V304.355C331.295 299.51 327.26 291.95 327.26 283.43C327.26 268.79 339.125 256.94 353.75 256.94C368.375 256.94 380.24 268.805 380.24 283.43C380.24 291.95 376.205 299.51 369.95 304.355V314.03H438.02V143H262.76Z" fill="#FFDBB4"/>
<path opacity="0.3" d="M394.955 143C396.29 143 424.835 146.405 424.28 153.755C423.725 161.12 398.675 184.7 391.01 198.245C381.92 214.295 385.4 222.875 393.065 223.28C400.745 223.67 418.04 195.95 418.04 195.95L438.035 191.195V143H394.97H394.955Z" fill="black"/>
<path d="M596.78 43.3101L519.755 105.455C513.485 110.405 505.535 112.73 497.57 111.95L447.89 96.8901L380.285 92.1501C380.285 92.1501 347.6 104.495 345.86 106.775C344.12 109.055 322.325 142.985 322.325 142.985H363.32C363.32 142.985 382.43 134.12 384.845 133.43C387.26 132.74 428.555 141.425 433.79 147.305C439.04 153.185 425.255 169.805 405.785 187.145C386.315 204.485 384.53 217.025 393.05 223.265C402.11 229.895 415.58 209.09 423.035 203.42C430.49 197.75 433.085 200.975 459.125 192.41C485.165 183.845 530.15 164.45 530.15 164.45L637.205 117.065L596.75 43.3101H596.78Z" fill="#FFBF9D"/>
<path d="M332.645 143.15C332.645 143.15 332.795 142.805 333.14 142.175C333.53 141.485 334.055 140.57 334.7 139.43C336.125 137 338.12 133.595 340.55 129.44C341.18 128.405 341.78 127.235 342.68 126.2C343.565 125.165 344.69 124.235 345.935 123.485C348.365 121.94 350.945 120.29 353.675 118.55C359.135 115.085 365.135 111.275 371.435 107.27C372.32 106.7 373.205 106.145 374.03 105.62L374.12 105.56H374.225C388.4 105.095 401.105 104.69 410.36 104.39C414.89 104.285 418.565 104.195 421.205 104.12C422.42 104.12 423.395 104.09 424.145 104.09C424.82 104.09 425.165 104.09 425.165 104.135C425.165 104.165 424.82 104.195 424.145 104.24C423.395 104.285 422.42 104.345 421.205 104.42C418.565 104.54 414.89 104.72 410.36 104.93C401.105 105.29 388.4 105.785 374.24 106.34L374.435 106.28C373.61 106.805 372.725 107.36 371.84 107.93C365.54 111.905 359.525 115.7 354.05 119.15C348.74 122.765 342.98 125.015 341.015 129.725C338.495 133.835 336.425 137.18 334.955 139.595C334.25 140.705 333.695 141.59 333.275 142.25C332.885 142.85 332.66 143.165 332.645 143.15Z" fill="#FF9A6C"/>
<path d="M385.46 126.95C385.67 126.95 385.76 128.525 385.64 130.445C385.52 132.365 385.25 133.91 385.04 133.895C384.83 133.88 384.74 132.32 384.86 130.4C384.98 128.48 385.25 126.935 385.46 126.95Z" fill="#FF9A6C"/>
<path d="M358.055 138.23C358.235 138.11 359.15 139.1 360.095 140.465C361.04 141.83 361.67 143.03 361.49 143.15C361.31 143.27 360.395 142.28 359.45 140.915C358.505 139.55 357.875 138.35 358.055 138.23Z" fill="#FF9A6C"/>
<path d="M436.13 140.69C436.31 140.615 437.27 144.515 436.265 149.255C435.305 154.01 432.89 157.205 432.755 157.07C432.545 156.95 434.585 153.68 435.5 149.09C436.475 144.53 435.875 140.705 436.13 140.675V140.69Z" fill="#FF9A6C"/>
<path d="M513.725 113.18C513.755 113.27 512.825 113.72 511.19 114.14C509.57 114.56 507.2 114.8 504.665 114.395C502.13 114.02 499.94 113.255 498.38 112.7C496.82 112.13 495.89 111.71 495.92 111.62C495.95 111.515 496.955 111.74 498.545 112.175C500.135 112.58 502.325 113.255 504.77 113.615C509.705 114.425 513.665 112.88 513.71 113.165L513.725 113.18Z" fill="#FF9A6C"/>
<g opacity="0.3">
<path d="M407.54 212.075C406.82 209.75 404.33 208.25 401.885 208.25C399.455 208.25 397.145 209.48 395.375 211.16C393.605 212.84 392.3 214.925 390.995 216.995C392.045 219.665 396.38 223.445 398.255 223.46C399.725 223.46 403.91 221.09 405.86 218.48C407.225 216.65 408.2 214.265 407.54 212.09V212.075Z" fill="white"/>
</g>
<path d="M427.46 195.95C427.31 196.1 426.065 195.17 424.685 193.85C423.305 192.53 422.3 191.345 422.45 191.195C422.6 191.045 423.845 191.975 425.225 193.295C426.605 194.615 427.61 195.8 427.46 195.95Z" fill="#FF9A6C"/>
<path d="M428.735 195.71C428.525 195.8 427.715 194.435 426.5 192.935C425.3 191.42 424.13 190.325 424.265 190.16C424.385 189.995 425.825 190.85 427.1 192.455C428.39 194.045 428.915 195.65 428.72 195.725L428.735 195.71Z" fill="#FF9A6C"/>
<path d="M450.995 104.255C450.905 104.48 448.295 103.115 444.845 103.355C441.38 103.535 438.965 105.2 438.845 104.99C438.785 104.915 439.31 104.39 440.345 103.82C441.38 103.25 442.97 102.695 444.785 102.575C446.615 102.47 448.25 102.83 449.345 103.265C450.455 103.715 451.025 104.165 450.98 104.255H450.995Z" fill="#FF9A6C"/>
<path opacity="0.4" d="M346.28 123.65C346.28 123.65 366.8 103.91 375.23 102.95C383.66 101.99 422.795 104.24 422.795 104.24L374.225 105.965L346.28 123.65Z" fill="#FF9A6C"/>
<path d="M407.675 212.36C407.45 212.405 407.06 211.16 405.86 210.23C404.69 209.255 403.4 209.12 403.4 208.895C403.34 208.685 404.93 208.46 406.355 209.615C407.78 210.755 407.885 212.36 407.675 212.36Z" fill="#FF9A6C"/>
<path d="M65.825 641.81L121.79 563.975L77.69 488.405L203.675 425.285C203.675 425.285 216.245 439.37 194.96 481.97C194.96 481.97 216.53 530.075 209.015 553.325C201.965 575.105 197.87 576.305 197.87 576.305L176 642.35L65.81 641.81H65.825Z" fill="#FFBF9D"/>
<path d="M270.83 390.965C261.74 390.485 253.595 394.625 248.48 401.225H242.93V325.94H174.86V335.615C181.46 340.73 185.585 348.86 185.12 357.95C184.43 371.255 173.66 382.145 160.37 382.985C144.965 383.945 132.17 371.735 132.17 356.54C132.17 348.02 136.205 340.46 142.46 335.615V325.94H67.67V484.16C67.67 491.24 73.4 496.97 80.48 496.97H242.945V433.625H248.495C253.34 439.88 260.9 443.915 269.42 443.915C284.615 443.915 296.825 431.12 295.865 415.715C295.04 402.425 284.135 391.655 270.83 390.965Z" fill="#FFDBB4"/>
<path opacity="0.2" d="M270.83 390.965C261.74 390.485 253.595 394.625 248.48 401.225H242.93V325.94H174.86V335.615C181.46 340.73 185.585 348.86 185.12 357.95C184.43 371.255 173.66 382.145 160.37 382.985C144.965 383.945 132.17 371.735 132.17 356.54C132.17 348.02 136.205 340.46 142.46 335.615V325.94H67.67V484.16C67.67 491.24 73.4 496.97 80.48 496.97H242.945V433.625H248.495C253.34 439.88 260.9 443.915 269.42 443.915C284.615 443.915 296.825 431.12 295.865 415.715C295.04 402.425 284.135 391.655 270.83 390.965Z" fill="black"/>
<path d="M280.415 390.965C271.325 390.485 263.18 394.625 258.065 401.225H252.515V325.94H184.445V335.615C191.045 340.73 195.17 348.86 194.705 357.95C194.015 371.255 183.245 382.145 169.955 382.985C154.55 383.945 141.755 371.735 141.755 356.54C141.755 348.02 145.79 340.46 152.045 335.615V325.94H77.255V484.16C77.255 491.24 82.985 496.97 90.065 496.97H252.53V433.625H258.08C262.925 439.88 270.485 443.915 279.005 443.915C294.2 443.915 306.41 431.12 305.45 415.715C304.625 402.425 293.72 391.655 280.415 390.965Z" fill="#FFDBB4"/>
<g opacity="0.3">
<path d="M207.935 452.99C207.77 448.415 207.425 443.75 205.805 439.475C204.17 435.2 201.08 431.27 196.805 429.62L197.33 431.09C199.16 449.345 198.14 467.885 194.33 485.825C193.835 488.18 193.28 490.595 193.7 492.965C194.12 495.335 196.445 496.925 198.845 496.985C201.44 497.045 203.9 496.985 203.9 496.985C204.47 495.185 205.355 490.97 205.715 488.78C207.62 476.96 208.37 464.945 207.95 452.975L207.935 452.99Z" fill="black"/>
</g>
<path d="M142.805 497.255C142.94 497.09 144.455 498.11 146.18 499.52C147.905 500.945 149.195 502.235 149.06 502.4C148.925 502.565 147.41 501.545 145.685 500.135C143.96 498.71 142.67 497.42 142.805 497.255Z" fill="#FF9A6C"/>
<path d="M138.23 504.23C138.035 504.38 136.385 502.055 133.445 500.36C130.52 498.62 127.7 498.32 127.73 498.08C127.7 497.885 130.73 497.84 133.835 499.685C136.97 501.5 138.41 504.155 138.23 504.215V504.23Z" fill="#FF9A6C"/>
<path d="M196.4 573.98C197.765 572.69 217.145 564.11 198.815 497.105C198.815 497.105 204.74 452.84 202.64 438.575C201.2 428.765 191.465 426.17 186.185 431.57C182.495 435.35 181.82 443.48 179.435 454.55C173.6 481.49 172.895 486.26 163.16 494.495C151.91 503.99 130.925 498.11 130.925 498.11L196.415 573.98H196.4Z" fill="#FFBF9D"/>
<path d="M193.235 571.685C193.235 571.685 193.31 571.415 193.52 570.965C193.775 570.425 194.09 569.765 194.465 568.955C195.275 567.2 196.4 564.665 197.555 561.425C199.88 554.975 202.115 545.615 202.115 535.115C202.115 529.88 201.59 524.885 200.72 520.43C199.88 515.975 198.68 512.015 198.155 508.58C197.57 505.16 197.63 502.295 197.975 500.375C198.14 499.415 198.335 498.68 198.5 498.2C198.665 497.72 198.77 497.465 198.785 497.48C198.86 497.51 198.5 498.515 198.26 500.42C198.02 502.325 198.035 505.115 198.68 508.475C199.265 511.865 200.51 515.78 201.41 520.28C202.325 524.765 202.88 529.805 202.88 535.1C202.88 545.705 200.525 555.155 198.05 561.605C196.835 564.845 195.605 567.365 194.72 569.09C194.285 569.87 193.925 570.515 193.64 571.04C193.385 571.475 193.235 571.7 193.22 571.685H193.235Z" fill="#FF9A6C"/>
<g opacity="0.4">
<path d="M207.665 530.24C207.005 524.51 205.16 519.005 203.315 513.545C201.92 509.39 200.48 505.145 197.84 501.62C196.775 510.41 202.34 517.565 202.34 529.97C202.34 539.495 200.9 555.38 196.775 563.96C204.2 555.365 208.955 541.505 207.65 530.225L207.665 530.24Z" fill="#FF9A6C"/>
</g>
<g opacity="0.3">
<path d="M197.45 434.615C196.925 433.73 195.905 433.34 194.96 433.115C191.54 432.275 187.88 432.635 184.64 434.105C184.28 436.475 183.935 438.89 184.085 441.29C184.235 443.735 184.97 446.21 186.53 447.98C188.09 449.75 190.565 450.65 192.68 449.81C195.11 448.835 196.415 445.985 197.075 443.255C197.57 441.245 197.84 439.175 197.9 437.09C197.915 436.25 197.9 435.35 197.465 434.63L197.45 434.615Z" fill="white"/>
</g>
<path d="M193.145 449.09C193.325 449.21 192.305 450.35 190.565 450.425C188.825 450.5 187.73 449.45 187.895 449.315C188.015 449.135 189.095 449.72 190.535 449.645C191.975 449.6 192.995 448.925 193.145 449.09Z" fill="#FF9A6C"/>
<path d="M191.99 466.31C191.885 466.52 189.935 465.575 187.355 465.485C184.775 465.365 182.75 466.16 182.66 465.935C182.54 465.77 184.58 464.57 187.385 464.705C190.19 464.795 192.125 466.16 191.99 466.31Z" fill="#FF9A6C"/>
<path d="M189.005 469.145C189.005 469.355 187.73 469.535 186.2 469.25C184.655 468.98 183.53 468.35 183.605 468.155C183.68 467.945 184.88 468.215 186.335 468.47C187.79 468.74 189.005 468.905 189.005 469.13V469.145Z" fill="#FF9A6C"/>
<path d="M191.945 475.16C192.02 475.34 189.44 476.12 186.35 475.265C183.245 474.455 181.4 472.49 181.55 472.37C181.7 472.19 183.65 473.75 186.545 474.515C189.425 475.31 191.9 474.92 191.945 475.16Z" fill="#FF9A6C"/>
<path d="M172.91 480.26C172.91 480.26 172.73 480.83 172.295 481.79C171.86 482.765 171.14 484.13 170.165 485.765C168.215 489.05 165.08 493.34 160.865 497.39C156.635 501.425 152.21 504.395 148.865 506.195C147.185 507.11 145.79 507.77 144.8 508.16C143.81 508.565 143.255 508.76 143.24 508.715C143.18 508.595 145.34 507.635 148.595 505.715C151.85 503.81 156.17 500.81 160.34 496.82C164.495 492.83 167.66 488.645 169.715 485.465C171.77 482.285 172.82 480.185 172.94 480.245L172.91 480.26Z" fill="#FF9A6C"/>
<g opacity="0.4">
<path d="M115.145 497.12C122.705 499.415 128.18 506.54 135.875 508.295C140.54 509.36 145.52 508.265 149.735 506C153.95 503.735 157.475 500.36 160.61 496.745L115.145 497.135V497.12Z" fill="#FF9A6C"/>
</g>
<path opacity="0.3" d="M85.13 501.155C85.13 501.155 109.91 500.345 125.96 499.82C142.025 499.295 158.75 498.785 158.75 498.785L160.61 496.73L82.685 496.955L85.13 501.14V501.155Z" fill="black"/>
<path d="M362.915 324.665V314.66C369.17 309.815 373.205 302.255 373.205 293.735C373.205 279.095 361.34 267.245 346.715 267.245C332.09 267.245 320.225 279.11 320.225 293.735C320.225 302.255 324.26 309.815 330.515 314.66V324.665H255.725V400.115H261.275C266.12 393.86 273.68 389.825 282.2 389.825C296.84 389.825 308.69 401.69 308.69 416.315C308.69 430.94 296.825 442.805 282.2 442.805C273.68 442.805 266.12 438.77 261.275 432.515H255.725V495.68H430.985V324.65H362.915V324.665Z" fill="#FFB667"/>
<path opacity="0.3" d="M362.915 324.665V314.66C369.17 309.815 373.205 302.255 373.205 293.735C373.205 279.095 361.34 267.245 346.715 267.245C332.09 267.245 320.225 279.11 320.225 293.735C320.225 302.255 324.26 309.815 330.515 314.66V324.665H255.725V400.115H261.275C266.12 393.86 273.68 389.825 282.2 389.825C296.84 389.825 308.69 401.69 308.69 416.315C308.69 430.94 296.825 442.805 282.2 442.805C273.68 442.805 266.12 438.77 261.275 432.515H255.725V495.68H430.985V324.65H362.915V324.665Z" fill="black"/>
<path opacity="0.3" d="M362.915 324.665V314.66C369.17 309.815 373.205 302.255 373.205 293.735C373.205 279.095 361.34 267.245 346.715 267.245C332.09 267.245 320.225 279.11 320.225 293.735C320.225 302.255 324.26 309.815 330.515 314.66V324.665H255.725V400.115H261.275C266.12 393.86 273.68 389.825 282.2 389.825C296.84 389.825 308.69 401.69 308.69 416.315C308.69 430.94 296.825 442.805 282.2 442.805C273.68 442.805 266.12 438.77 261.275 432.515H255.725V495.68H430.985V324.65H362.915V324.665Z" fill="black"/>
<path d="M369.44 324.665V314.66C375.695 309.815 379.73 302.255 379.73 293.735C379.73 279.095 367.865 267.245 353.24 267.245C338.615 267.245 326.75 279.11 326.75 293.735C326.75 302.255 330.785 309.815 337.04 314.66V324.665H262.25V400.115H267.8C272.645 393.86 280.205 389.825 288.725 389.825C303.365 389.825 315.215 401.69 315.215 416.315C315.215 430.94 303.35 442.805 288.725 442.805C280.205 442.805 272.645 438.77 267.8 432.515H262.25V495.68H437.51V324.65H369.44V324.665Z" fill="#FF8500"/>
<path opacity="0.3" d="M369.44 324.665V314.66C375.695 309.815 379.73 302.255 379.73 293.735C379.73 279.095 367.865 267.245 353.24 267.245C338.615 267.245 326.75 279.11 326.75 293.735C326.75 302.255 330.785 309.815 337.04 314.66V324.665H262.25V400.115H267.8C272.645 393.86 280.205 389.825 288.725 389.825C303.365 389.825 315.215 401.69 315.215 416.315C315.215 430.94 303.35 442.805 288.725 442.805C280.205 442.805 272.645 438.77 267.8 432.515H262.25V495.68H437.51V324.65H369.44V324.665Z" fill="black"/>
<g opacity="0.3">
<path d="M412.46 476.42C407.765 474.425 403.535 471.395 398.705 469.715C389.33 466.445 372.08 464.93 372.575 477.965L398.765 495.905L437.42 495.71V478.58C431.915 480.47 416.84 478.31 412.46 476.435V476.42Z" fill="black"/>
</g>
<g opacity="0.3">
<path d="M429.74 374.075C429.5 378.92 431.27 383.615 432.995 388.145C428.18 387.425 425.3 382.655 422.045 379.025C418.805 375.41 412.64 372.785 409.445 376.445C407.51 378.68 406.16 382.325 406.85 385.205C410.225 399.41 418.19 412.565 424.625 425.66C428.06 432.68 434.555 445.46 437.42 452.93V359.795C432.755 361.13 429.965 369.215 429.74 374.06V374.075Z" fill="black"/>
</g>
<path d="M372.965 476.045C371.51 478.25 374.495 481.265 375.44 482.075C382.13 487.775 406.475 507.605 413.525 515.18C421.625 523.88 465.755 546.095 472.355 550.295C478.955 554.495 486.17 553.895 492.77 563.195C499.37 572.495 512.405 641.78 512.405 641.78H603.275L543.5 523.88C543.5 523.88 538.4 447.635 536.3 439.235C534.2 430.835 514.295 399.38 507.995 397.28C501.695 395.18 498.305 398.555 498.305 398.555C498.305 398.555 487.145 383.06 478.73 381.86C470.33 380.66 466.49 382.925 466.49 382.925C466.49 382.925 451.415 353.96 442.205 357.485C435.845 359.915 435.275 364.325 439.28 373.13C442.28 379.715 460.385 415.895 467.165 432.605C469.61 438.62 465.395 435.44 465.395 435.44C465.395 435.44 428.69 373.91 419.84 370.16C412.61 367.1 404.525 373.46 409.94 383.66C415.34 393.86 442.325 451.22 442.325 451.22C446.855 465.395 449.405 483.23 450.515 496.865C450.635 497.435 450.155 497.96 449.57 497.885C445.085 497.255 427.49 493.535 419.78 487.895C411.095 481.535 383.465 460.13 372.965 476.015V476.045Z" fill="#FF9A6C"/>
<path d="M461.705 374.735C461.705 374.735 462.26 375.5 463.115 376.97C464.03 378.545 465.245 380.645 466.73 383.195C469.745 388.46 473.885 395.765 478.235 403.955C482.585 412.145 486.23 419.72 488.705 425.27C489.935 428.045 490.91 430.31 491.54 431.885C492.17 433.46 492.5 434.345 492.455 434.36C492.41 434.375 491.99 433.535 491.27 432.005C490.49 430.355 489.47 428.165 488.21 425.495C485.615 420.005 481.895 412.505 477.56 404.315C473.225 396.14 469.16 388.805 466.265 383.465C464.87 380.87 463.73 378.74 462.875 377.12C462.095 375.62 461.675 374.765 461.72 374.75L461.705 374.735Z" fill="#D16D4E"/>
<path d="M495.695 396.32C495.695 396.32 496.13 396.71 496.82 397.52C497.51 398.315 498.47 399.515 499.625 401.015C501.92 404.03 504.935 408.35 507.695 413.435C510.455 418.535 512.495 423.38 513.92 426.875C514.625 428.63 515.18 430.07 515.525 431.06C515.885 432.05 516.065 432.62 516.005 432.635C515.96 432.65 515.69 432.14 515.24 431.18C514.73 430.055 514.13 428.69 513.395 427.1C511.85 423.65 509.735 418.88 507.005 413.81C504.26 408.755 501.35 404.42 499.175 401.345C498.155 399.92 497.285 398.705 496.565 397.7C495.95 396.845 495.635 396.35 495.68 396.305L495.695 396.32Z" fill="#D16D4E"/>
<g opacity="0.3">
<path d="M447.095 359.15C448.49 360.635 450.8 363.845 451.43 365.78C452.06 367.715 450.215 370.58 448.295 371.285C444.86 372.545 442.73 369.905 441.005 367.925C439.28 365.945 438.875 364.115 438.32 363.005C438.14 362.975 438.875 360.8 442.565 359.375C444.905 358.475 447.11 359.135 447.11 359.135L447.095 359.15Z" fill="white"/>
</g>
<g opacity="0.3">
<path d="M419.315 371.96C420.605 373.58 423.29 376.805 423.74 378.8C424.19 380.795 422.885 383.72 420.845 384.2C417.185 385.085 414.125 381.98 412.535 379.82C410.945 377.66 410.525 376.025 409.88 374.87C409.7 374.81 410.675 372.725 414.62 371.72C417.125 371.075 419.33 371.96 419.33 371.96H419.315Z" fill="white"/>
</g>
<g opacity="0.3">
<path d="M382.85 487.25C384.155 488.135 386.03 486.98 386.48 485.465C386.915 483.95 387.17 482.33 386.645 480.86C385.97 478.97 384.455 477.08 383.15 475.565C381.845 474.05 379.775 473.015 377.84 473.48C377.84 473.48 372.995 476.9 373.43 478.64C373.865 480.38 382.865 487.265 382.865 487.265L382.85 487.25Z" fill="white"/>
</g>
<path d="M471.545 404.09C471.545 404.33 469.16 404.48 466.46 405.545C463.745 406.58 461.87 408.065 461.72 407.885C461.57 407.75 463.31 405.905 466.19 404.81C469.04 403.7 471.575 403.88 471.56 404.075L471.545 404.09Z" fill="#D16D4E"/>
<path d="M470.9 407.585C470.96 407.795 469.37 408.395 467.345 408.92C465.335 409.445 463.655 409.7 463.595 409.49C463.535 409.28 465.125 408.68 467.15 408.155C469.16 407.63 470.84 407.375 470.9 407.585Z" fill="#D16D4E"/>
<path d="M443.165 412.31C443.255 412.505 441.455 413.6 439.145 414.77C436.82 415.925 434.87 416.72 434.765 416.525C434.675 416.33 436.475 415.235 438.785 414.065C441.11 412.91 443.06 412.115 443.15 412.31H443.165Z" fill="#D16D4E"/>
<path d="M441.71 410.54C441.71 410.765 439.745 410.705 437.645 411.665C435.515 412.58 434.255 414.065 434.075 413.915C433.895 413.825 434.99 411.965 437.33 410.945C439.655 409.91 441.77 410.345 441.71 410.54Z" fill="#D16D4E"/>
<g opacity="0.3">
<path d="M467.54 385.205L491.225 431.48C489.395 415.925 479.09 395.78 467.54 385.205Z" fill="#D16D4E"/>
</g>
<g opacity="0.3">
<path d="M497.765 398.585C499.01 397.565 500.75 398.105 502.88 401C506.015 405.275 509.135 409.61 511.49 414.365C513.845 419.12 515.45 424.34 515.36 429.65C510.05 417.275 505.145 409.85 497.75 398.6" fill="#D16D4E"/>
</g>
<path d="M409.295 499.58C409.43 499.745 408.275 500.915 406.91 502.4C405.545 503.87 404.465 505.115 404.285 504.995C404.105 504.875 404.93 503.39 406.34 501.875C407.75 500.345 409.16 499.415 409.295 499.58Z" fill="#D16D4E"/>
<path d="M411.08 502.295C411.29 502.295 411.02 504.035 409.445 505.31C407.87 506.6 406.115 506.495 406.16 506.285C406.13 506.06 407.615 505.82 408.965 504.695C410.345 503.615 410.885 502.22 411.095 502.28L411.08 502.295Z" fill="#D16D4E"/>
<path d="M455.135 497.09C455.18 497.3 453.815 497.81 452.045 498.035C450.275 498.26 448.82 498.095 448.82 497.885C448.82 497.66 450.23 497.48 451.955 497.27C453.68 497.06 455.09 496.895 455.15 497.105L455.135 497.09Z" fill="#D16D4E"/>
<g opacity="0.3">
<path d="M450.95 497.42C452.6 495.95 453.41 493.715 453.56 491.525C453.71 489.32 453.26 487.13 452.75 484.985C451.19 478.49 449 472.145 446.195 466.085C447.56 476.54 449 486.995 450.53 497.435" fill="#D16D4E"/>
</g>
<g opacity="0.3">
<path d="M463.685 443.78C468.47 444.125 472.565 448.64 472.43 453.44Z" fill="#D16D4E"/>
</g>
<g opacity="0.3">
<path d="M481.88 437.975C486.05 437.18 490.61 439.37 492.605 443.12Z" fill="#D16D4E"/>
</g>
<path d="M246.695 318.35V248.135H236.345C231.5 254.39 223.94 258.425 215.42 258.425C200.78 258.425 188.93 246.56 188.93 231.935C188.93 217.31 200.795 205.445 215.42 205.445C223.94 205.445 231.5 209.48 236.345 215.735H246.695V147.32H71.435V318.35H146.225V328.355C139.97 333.2 135.935 340.76 135.935 349.28C135.935 363.92 147.8 375.77 162.425 375.77C177.05 375.77 188.915 363.905 188.915 349.28C188.915 340.76 184.88 333.2 178.625 328.355V318.35H246.695Z" fill="#FFB667"/>
<path opacity="0.3" d="M246.695 318.35V248.135H236.345C231.5 254.39 223.94 258.425 215.42 258.425C200.78 258.425 188.93 246.56 188.93 231.935C188.93 217.31 200.795 205.445 215.42 205.445C223.94 205.445 231.5 209.48 236.345 215.735H246.695V147.32H71.435V318.35H146.225V328.355C139.97 333.2 135.935 340.76 135.935 349.28C135.935 363.92 147.8 375.77 162.425 375.77C177.05 375.77 188.915 363.905 188.915 349.28C188.915 340.76 184.88 333.2 178.625 328.355V318.35H246.695Z" fill="black"/>
<path opacity="0.2" d="M246.695 318.35V248.135H236.345C231.5 254.39 223.94 258.425 215.42 258.425C200.78 258.425 188.93 246.56 188.93 231.935C188.93 217.31 200.795 205.445 215.42 205.445C223.94 205.445 231.5 209.48 236.345 215.735H246.695V147.32H71.435V318.35H146.225V328.355C139.97 333.2 135.935 340.76 135.935 349.28C135.935 363.92 147.8 375.77 162.425 375.77C177.05 375.77 188.915 363.905 188.915 349.28C188.915 340.76 184.88 333.2 178.625 328.355V318.35H246.695Z" fill="black"/>
<path d="M254.015 318.35V248.135H243.665C238.82 254.39 231.26 258.425 222.74 258.425C208.1 258.425 196.25 246.56 196.25 231.935C196.25 217.31 208.115 205.445 222.74 205.445C231.26 205.445 238.82 209.48 243.665 215.735H254.015V147.32H78.755V318.35H153.545V328.355C147.29 333.2 143.255 340.76 143.255 349.28C143.255 363.92 155.12 375.77 169.745 375.77C184.37 375.77 196.235 363.905 196.235 349.28C196.235 340.76 192.2 333.2 185.945 328.355V318.35H254.015Z" fill="#FF8500"/>
<path opacity="0.3" d="M254.015 318.35V248.135H243.665C238.82 254.39 231.26 258.425 222.74 258.425C208.1 258.425 196.25 246.56 196.25 231.935C196.25 217.31 208.115 205.445 222.74 205.445C231.26 205.445 238.82 209.48 243.665 215.735H254.015V147.32H78.755V318.35H153.545V328.355C147.29 333.2 143.255 340.76 143.255 349.28C143.255 363.92 155.12 375.77 169.745 375.77C184.37 375.77 196.235 363.905 196.235 349.28C196.235 340.76 192.2 333.2 185.945 328.355V318.35H254.015Z" fill="black"/>
<path opacity="0.3" d="M82.505 151.805L92.915 160.28C92.915 160.28 101.39 175.655 99.125 175.46C96.86 175.265 83.18 199.925 83.18 199.925C83.18 199.925 79.025 209.06 91.355 207.98C91.355 207.98 96.635 221.645 107.315 219.98L117.995 218.315C117.995 218.315 120.08 235.565 129.515 232.64C138.935 229.73 153.5 219.185 153.5 219.185C153.5 219.185 149.75 234.125 162.17 235.73C174.59 237.335 195.41 182.465 195.41 182.465L185 148.025L82.52 151.79L82.505 151.805Z" fill="black"/>
<path d="M66.92 72.59C66.92 72.59 169.37 109.91 179.015 115.46C188.66 121.01 201.47 180.215 199.85 184.205C198.23 188.21 172.115 230.825 172.115 230.825C172.115 230.825 154.745 230.72 158.105 216.905C160.655 206.39 166.37 199.115 166.37 199.115C166.37 199.115 134.735 225.605 127.625 224.915C115.25 223.7 117.74 213.05 117.74 213.05L106.31 215.03C101.885 215.795 97.415 213.245 96.14 208.925C95.345 206.255 95.705 203.21 99.14 200.54L87.2 201.875C84.8 202.145 82.67 200.33 82.565 197.915C82.475 195.635 83.105 192.5 85.64 188.54C91.34 179.645 103.865 177.83 104.12 177.08C104.36 176.345 102.005 167.03 102.005 167.03L99.125 151.79C99.125 151.79 51.995 154.55 37.88 144.395C23.765 134.24 22.685 117.17 21.35 116.495C20.015 115.835 -53.62 61.76 -54.22 60.77C-54.805 59.795 1.08501 0.0500488 1.08501 0.0500488L66.905 72.56L66.92 72.59Z" fill="#AE7461"/>
<path d="M119.855 136.685C119.855 136.685 120.065 136.76 120.425 136.97C120.77 137.21 121.265 137.615 121.73 138.29C122.69 139.61 123.62 141.86 124.07 144.815V144.785C124.865 148.31 125.78 152.81 126.605 157.985C127.025 160.565 127.4 163.325 127.685 166.235C127.97 169.13 128.195 172.16 128.015 175.31C127.925 176.705 127.73 178.1 127.31 179.45C126.71 180.68 126.26 181.985 125.465 183.065C124.115 185.375 122.285 187.19 120.56 188.885C116.945 192.125 113.195 194.39 109.985 196.1C106.76 197.795 104.015 198.905 102.11 199.61C101.15 199.97 100.4 200.21 99.89 200.36C99.38 200.51 99.095 200.57 99.095 200.555C99.095 200.525 99.35 200.42 99.845 200.21C100.415 199.97 101.135 199.685 102.005 199.325C103.865 198.53 106.55 197.345 109.73 195.605C112.88 193.85 116.57 191.57 120.08 188.345C121.745 186.665 123.53 184.88 124.82 182.645C125.585 181.595 126.005 180.35 126.575 179.165C126.71 178.535 126.95 177.92 127.025 177.26C127.085 176.585 127.22 175.925 127.235 175.25C127.415 172.19 127.19 169.175 126.92 166.295C126.65 163.415 126.29 160.67 125.9 158.09C125.12 152.93 124.28 148.43 123.56 144.89V144.86C123.185 141.98 122.36 139.745 121.49 138.425C120.65 137.075 119.765 136.745 119.825 136.67L119.855 136.685Z" fill="#6F4439"/>
<path d="M117.74 213.065C117.74 213.065 118.01 212.87 118.565 212.54C119.18 212.18 119.99 211.7 120.965 211.13C123.05 209.9 126.065 208.1 129.665 205.715C133.265 203.315 137.495 200.36 141.815 196.625C143.93 194.72 146.15 192.695 148.1 190.295C150.125 187.97 151.85 185.21 152.735 182.12C153.515 178.97 153.41 175.73 153.185 172.64C152.915 169.55 152.645 166.535 152.27 163.7C151.595 158.03 150.98 152.915 150.47 148.595C150.185 146.435 149.99 144.485 149.675 142.805C149.345 141.125 148.85 139.745 148.19 138.74C146.87 136.73 145.49 136.235 145.565 136.145C145.565 136.13 145.88 136.265 146.435 136.595C146.96 136.955 147.74 137.555 148.445 138.575C149.165 139.58 149.735 141.02 150.11 142.715C150.47 144.425 150.71 146.375 151.025 148.505C151.595 152.84 152.255 157.955 153.005 163.625C153.395 166.475 153.68 169.445 153.965 172.58C154.19 175.7 154.325 179 153.515 182.315C152.585 185.585 150.785 188.435 148.715 190.79C146.72 193.235 144.47 195.275 142.31 197.18C137.915 200.915 133.64 203.84 129.98 206.18C126.32 208.52 123.26 210.245 121.13 211.4C120.065 211.97 119.225 212.405 118.655 212.69C118.085 212.975 117.77 213.095 117.755 213.08L117.74 213.065Z" fill="#6F4439"/>
<path d="M165.77 199.94C165.77 199.94 166.355 199.28 167.375 198.05C168.395 196.835 169.805 195.005 171.35 192.605C172.895 190.205 174.56 187.25 176.075 183.8C176.435 182.93 176.855 182.06 177.2 181.13C177.545 180.215 177.98 179.27 178.13 178.325C178.49 176.39 178.37 174.245 178.13 172.1C177.65 167.795 176.78 163.715 175.94 160.04C175.1 156.365 174.215 153.065 173.465 150.305C172.73 147.65 172.115 145.445 171.65 143.78C171.215 142.235 170.99 141.38 171.035 141.365C171.08 141.35 171.41 142.175 171.935 143.69C172.46 145.205 173.18 147.41 173.99 150.155C174.8 152.9 175.745 156.185 176.63 159.875C177.515 163.565 178.415 167.645 178.895 172.01C179.135 174.185 179.255 176.36 178.865 178.475C178.67 179.57 178.25 180.47 177.875 181.4C177.515 182.33 177.095 183.215 176.72 184.085C175.145 187.55 173.405 190.52 171.8 192.89C170.18 195.275 168.695 197.075 167.585 198.23C166.49 199.4 165.785 199.955 165.755 199.925L165.77 199.94Z" fill="#6F4439"/>
<path d="M62.81 77.2249C62.915 77.4199 59.915 79.1449 56.135 81.0799C52.34 83.0149 49.19 84.4249 49.1 84.2449C48.995 84.0499 51.995 82.3249 55.79 80.3899C59.585 78.4549 62.735 77.0449 62.825 77.2399L62.81 77.2249Z" fill="#6F4439"/>
<g opacity="0.3">
<path d="M122.255 186.965C128.69 180.11 128.24 171.62 128.405 160.28C129.5 167.84 130.145 178.115 128.405 182.255C126.425 186.935 122.18 189.725 114.86 192.89C114.86 192.89 120.62 188.72 122.255 186.98V186.965Z" fill="#6F4439"/>
</g>
<path opacity="0.3" d="M174.185 151.805C174.185 151.805 182.33 173.78 181.055 178.4C179.795 183.005 175.055 193.895 166.34 199.13C166.34 199.13 178.415 184.415 178.715 176.585C179 168.89 174.185 151.805 174.185 151.805Z" fill="#6F4439"/>
<g opacity="0.3">
<path d="M99.2 211.415C103.085 209.63 107.285 208.49 111.545 208.055C112.4 207.965 113.3 207.92 114.095 208.25C114.89 208.58 115.535 209.42 115.37 210.26C115.175 211.295 113.99 211.76 112.97 212.03C110.39 212.705 107.75 213.215 105.095 213.575C104 213.725 102.875 213.83 101.795 213.59C100.715 213.35 99.665 212.705 99.215 211.685" fill="#6F4439"/>
</g>
<g opacity="0.3">
<path d="M124.325 223.565C125.54 220.595 128.195 218.51 130.745 216.56C131.795 215.765 132.86 214.955 134.09 214.46C135.32 213.965 136.745 213.83 137.945 214.37C139.145 214.91 140.03 216.245 139.79 217.55C139.595 218.585 138.77 219.38 137.945 220.025C135.125 222.245 131.735 223.715 128.195 224.27C126.665 224.51 124.865 224.48 123.83 223.31" fill="#6F4439"/>
</g>
<g opacity="0.3">
<path d="M86.6 200.63C90.71 201.17 94.94 200.75 98.855 199.385C99.545 199.145 100.37 198.68 100.31 197.945C100.265 197.33 99.62 196.97 99.05 196.745C94.865 195.215 89.99 196.37 86.39 199.01C86.105 199.22 85.805 199.445 85.64 199.775C85.475 200.09 85.46 200.51 85.7 200.78C85.94 201.05 86.45 201.02 86.6 200.69" fill="#6F4439"/>
</g>
<g opacity="0.3">
<path d="M171.755 229.445C173.285 226.82 174.83 224.21 176.36 221.585C176.96 220.565 177.56 219.53 177.725 218.36C177.89 217.205 177.53 215.87 176.54 215.24C175.79 214.76 174.785 214.76 173.945 215.06C173.105 215.36 172.37 215.915 171.695 216.515C168.815 219.05 166.565 222.32 165.26 225.92C165.035 226.52 164.855 227.18 165.08 227.78C165.35 228.485 166.115 228.83 166.835 229.055C168.56 229.595 170.39 229.79 172.175 229.61" fill="#6F4439"/>
</g>
</svg>
