<?xml version="1.0" encoding="iso-8859-1"?>
<!-- Uploaded to: SVG Repo, www.svgrepo.com, Generator: SVG Repo Mixer Tools -->
<svg height="800px" width="800px" version="1.1" id="Layer_1" xmlns="http://www.w3.org/2000/svg" xmlns:xlink="http://www.w3.org/1999/xlink" 
	 viewBox="0 0 512 512" xml:space="preserve">
<path style="fill:#FFEBD2;" d="M376.006,288c0,0-72-2-72-90V96c0-26.51-21.49-48-48-48s-48,21.49-48,48v102c0,88-72,90-72,90H28.343
	C21.625,303.251,8,337.018,8,360l24-8v72h40l-8,32h40l-8,24c0,0,53,24,160,24l-0.004-0.008c0.002,0,0.005,0,0.007,0L256,503.998
	c0.177,0,0.35-0.001,0.527-0.002c0.197,0,0.394-0.001,0.591-0.002C363.364,503.826,416,479.998,416,479.998l-8-24h40l-8-32h40v-72
	l24,8c0-22.981-13.624-56.745-20.342-71.998H376.006z"/>
<path style="fill:#FFA54B;" d="M208.006,198V96c0-26.51,21.49-48,48-48s48,21.49,48,48v102c0,88,72,90,72,90h107.652
	c-2.198-4.99-3.658-8.002-3.658-8.002l24,8c0-20-40-88-40-88h1.147c-0.723-1.285-1.129-1.998-1.129-1.998h14.837
	c-4.061-6.965-18.207-30.202-30.402-37.716c1.2-0.606,2.381-1.261,3.553-1.938C436.831,137.08,417.972,111.005,402,90
	c-16.741-22.016-31.952-41.029-51.023-55.283C321.556,17.834,289.421,8,256,8c-36.871,0-72.177,11.969-104.001,32.168l-5.706,4.328
	c-1.852-1.781-3.729-3.395-5.626-4.859c-46.895,30.58-75.362,76.628-91.324,111.202c4.425,3.771,9.199,6.917,14.206,9.446
	c-12.194,7.511-26.34,30.747-30.402,37.715h14.848c0,0-0.408,0.714-1.131,2H48c0,0-34.315,58.338-39.375,82.835
	c-0.398,1.956-0.618,3.697-0.619,5.163L32,280c0,0-1.459,3.011-3.657,8h107.664C136.006,288,208.006,286,208.006,198z
	 M446.667,161.147c0.313-0.147,0.627-0.289,0.938-0.441l-0.938,1.68V161.147z"/>
<circle style="fill:#D7A091;" cx="256.01" cy="416" r="32"/>
<path style="fill:#EBB4A0;" d="M256.019,328c-0.004,0-0.009,0-0.009,0s-0.012,0-0.016,0c-30.935,0-59.54,12.83-56.013,48
	c8.024,80,40.024,56,56.013,56c0.004,0,0.008-0.001,0.008-0.001s0.013,0.001,0.017,0.001c15.987,0,47.987,24,56.012-56
	C315.559,340.83,286.953,328,256.019,328z"/>
<g>
	<path style="fill:#FF8C46;" d="M165.175,87.705c-1.743-15.675-8.529-30.984-20.645-42.908
		c-30.911-30.422-68.911-15.088-90.911,10.912C27.934,86.064,14.59,118.502,42.707,146.62C60.207,164.12,95.333,175,128,164
		c8.178-2.753-6.333-26.333-14-42l35,11c0,0-9.116-41.194-24-66L165.175,87.705z"/>
	<path style="fill:#FF8C46;" d="M345,85.705c1.743-15.675,8.529-30.984,20.645-42.908c30.912-30.422,68.912-15.088,90.912,10.912
		C482.242,84.064,497.118,116.883,469,145c-16.506,16.506-35,31.333-83,19c-10.245-2.632,6.333-37.667,10-43l-36,15
		c0,0,12.213-43.688,28-70L345,85.705z"/>
</g>
<path d="M176,192c-11.797,0-16,16.53-16,32s4.203,32,16,32s16-16.53,16-32S187.797,192,176,192z"/>
<path d="M336,192c-11.797,0-16,16.53-16,32s4.203,32,16,32s16-16.53,16-32S347.797,192,336,192z"/>
<path d="M234.343,381.657c1.562,1.562,3.609,2.343,5.657,2.343s4.095-0.781,5.657-2.343c3.125-3.124,3.125-8.19,0-11.314l-16-16
	c-3.124-3.124-8.189-3.124-11.313,0c-3.125,3.124-3.125,8.19,0,11.314L234.343,381.657z"/>
<path d="M272,384c2.047,0,4.095-0.781,5.657-2.343l16-16c3.125-3.124,3.125-8.19,0-11.314c-3.124-3.124-8.189-3.124-11.313,0l-16,16
	c-3.125,3.124-3.125,8.19,0,11.314C267.905,383.219,269.953,384,272,384z"/>
<path d="M300.313,424.9c-16.255,8.44-30.724-0.332-36.313-4.608V400c0-4.418-3.582-8-8-8s-8,3.582-8,8v20.295
	c-5.598,4.279-20.068,13.04-36.313,4.605c-3.922-2.037-8.751-0.508-10.787,3.413s-0.508,8.75,3.414,10.787
	c7.576,3.934,14.823,5.425,21.467,5.425c13.228,0,24.044-5.92,30.219-10.281c6.175,4.361,16.99,10.281,30.22,10.281
	c6.642,0,13.893-1.492,21.467-5.425c3.921-2.036,5.449-6.865,3.414-10.787C309.064,424.393,304.236,422.864,300.313,424.9z"/>
<path d="M264,448h-16c-4.418,0-8,3.582-8,8s3.582,8,8,8h16c4.418,0,8-3.582,8-8S268.418,448,264,448z"/>
<path d="M501.47,295.587c2.439,0.813,5.122,0.404,7.208-1.1c2.086-1.503,3.322-3.918,3.322-6.49c0-16.88-21.896-58.168-34.178-80
	H480c2.834,0,5.458-1.5,6.895-3.943c1.438-2.443,1.475-5.464,0.098-7.942c-1.499-2.698-12.477-22.102-24.864-34.757
	c3.669-2.602,7.171-5.519,10.439-8.787c27.181-27.181,23.661-61.409-10.461-101.736c-15.615-18.454-36.092-29.564-56.182-30.48
	c-14.556-0.662-28.454,4.113-40.601,13.849c-0.313-0.276-0.645-0.539-1.008-0.77C329.375,11.248,292.933,0,256,0
	c-36.922,0-73.355,11.242-108.288,33.414c-0.373,0.237-0.713,0.506-1.032,0.791c-12.147-9.736-26.044-14.51-40.605-13.852
	c-20.089,0.916-40.567,12.026-56.182,30.48C15.77,91.16,12.251,125.388,39.432,152.569c3.269,3.269,6.771,6.187,10.44,8.789
	c-12.388,12.655-23.366,32.06-24.865,34.758c-1.376,2.478-1.339,5.499,0.098,7.943C26.542,206.5,29.166,208,32,208h2.178
	C21.896,229.832,0,271.119,0,288c0,2.572,1.236,4.986,3.322,6.49s4.769,1.913,7.208,1.1l6.84-2.28C10.056,311.047,0,339.215,0,360
	c0,2.572,1.236,4.986,3.322,6.49s4.769,1.913,7.208,1.1L24,363.1V424c0,4.418,3.582,8,8,8h29.754l-5.515,22.06
	c-0.597,2.39-0.061,4.922,1.456,6.864S61.537,464,64,464h28.9l-4.49,13.47c-1.296,3.888,0.556,8.127,4.289,9.817
	C94.928,488.297,148.509,512,256,512c0.018,0,0.034-0.002,0.052-0.003c107.457-0.007,161.021-23.703,163.249-24.712
	c3.733-1.69,5.585-5.929,4.289-9.817l-4.49-13.47H448c2.463,0,4.79-1.135,6.306-3.077s2.053-4.474,1.456-6.863l-5.515-22.06H480
	c4.418,0,8-3.582,8-8v-60.9l13.47,4.49c2.439,0.813,5.122,0.404,7.208-1.1c2.086-1.503,3.322-3.918,3.322-6.49
	c0-20.785-10.056-48.953-17.37-66.69L501.47,295.587z M370.7,50.79c10.327-10.163,21.932-15.031,34.497-14.454
	c15.426,0.704,32.135,9.986,44.696,24.832c37.569,44.399,24.478,66.971,11.362,80.087c-4.346,4.346-9.184,7.961-14.351,10.824
	c-1.718,0.239-3.34,1.033-4.594,2.306c-16.305,7.386-35.23,7.675-52.17,0.168c2.13-7.78,6.813-17.646,16.167-29.63
	c2.224-2.85,2.261-6.837,0.089-9.728c-2.171-2.89-6.01-3.966-9.367-2.623l-25.204,10.082c4.606-15.253,13.242-38.666,26.181-53.369
	c2.328-2.646,2.651-6.504,0.794-9.5s-5.456-4.424-8.861-3.515c-1.107,0.295-16.25,4.455-32.937,14.86
	C360.194,63.507,364.831,56.565,370.7,50.79z M62.107,61.168c12.562-14.846,29.27-24.128,44.696-24.832
	c12.57-0.58,24.17,4.291,34.497,14.454c5.869,5.776,10.505,12.717,13.698,20.339c-16.688-10.405-31.83-14.564-32.937-14.86
	c-3.407-0.908-7.004,0.52-8.861,3.515c-1.857,2.996-1.534,6.854,0.794,9.5c12.909,14.669,21.555,38.1,26.171,53.365l-25.194-10.078
	c-3.357-1.342-7.196-0.268-9.367,2.623s-2.135,6.877,0.089,9.728c9.354,11.985,14.037,21.85,16.167,29.63
	c-16.942,7.508-35.87,7.218-52.176-0.17c-1.252-1.269-2.869-2.061-4.582-2.301c-5.169-2.863-10.01-6.479-14.357-10.827
	C37.629,128.139,24.538,105.567,62.107,61.168z M495.008,348.568l-12.479-4.16c-2.439-0.813-5.122-0.404-7.208,1.1
	c-2.086,1.503-3.322,3.918-3.322,6.49v64h-32c-2.463,0-4.79,1.135-6.306,3.077s-2.053,4.474-1.456,6.864l5.515,22.06H408
	c-2.572,0-4.986,1.237-6.49,3.322c-1.504,2.086-1.913,4.768-1.1,7.208l5.583,16.749c-17.203,6.06-67.373,20.721-149.993,20.721
	c-0.015,0-0.029,0.002-0.043,0.002c-82.607-0.005-132.764-14.666-149.95-20.721l5.583-16.749c0.813-2.439,0.404-5.122-1.1-7.208
	c-1.503-2.086-3.918-3.322-6.49-3.322H74.246l5.515-22.06c0.597-2.39,0.061-4.922-1.456-6.863C76.79,417.135,74.463,416,72,416H40
	v-64c0-2.572-1.236-4.986-3.322-6.489c-2.086-1.504-4.768-1.913-7.208-1.1l-12.477,4.159c4.41-28.092,22.002-64.662,22.206-65.081
	c1.402-2.896,0.935-6.35-1.189-8.768c-2.123-2.417-5.487-3.329-8.54-2.311l-10.588,3.53c6.798-19.199,24.15-51.714,36.014-71.884
	c1.455-2.474,1.474-5.538,0.049-8.028S50.87,192,48,192h-1.751c5.554-8.423,12.361-17.419,18.2-22.449
	c9.978,4.301,20.694,6.524,31.501,6.524c9.003,0,18.063-1.538,26.798-4.654c-0.247,1.076-0.534,1.982-0.813,2.715
	c-2.049,5.397-6.199,9.041-11.385,9.997c-4.345,0.8-7.219,4.971-6.418,9.316c0.71,3.855,4.074,6.553,7.858,6.553
	c0.481,0,0.969-0.044,1.458-0.134c10.658-1.963,19.422-9.458,23.444-20.051c2.965-7.808,5.279-22.423-4.845-43.181l16.98,6.792
	c2.741,1.097,5.865,0.594,8.125-1.309c2.259-1.902,3.286-4.895,2.671-7.784c-0.318-1.497-6.135-28.31-18.702-52.731
	c12.573,6.94,27.248,17.922,35.802,34.131c2.063,3.907,6.902,5.403,10.809,3.341c3.908-2.063,5.403-6.902,3.341-10.809
	c-4.256-8.065-9.657-15-15.555-20.939c-0.006-0.072-0.005-0.143-0.013-0.215c-1.701-15.298-7.766-29.714-17.269-41.409
	C189.965,25.996,222.843,16,256,16s66.036,9.996,97.76,29.703c-9.503,11.696-15.567,26.111-17.268,41.41
	c-0.008,0.072-0.007,0.142-0.013,0.213c-5.897,5.938-11.298,12.875-15.555,20.94c-2.062,3.907-0.566,8.747,3.341,10.809
	c3.907,2.061,8.747,0.566,10.809-3.341c8.556-16.211,23.229-27.192,35.802-34.132c-12.566,24.422-18.383,51.236-18.702,52.732
	c-0.615,2.889,0.412,5.882,2.671,7.784s5.382,2.405,8.125,1.309l16.98-6.792c-10.124,20.758-7.81,35.374-4.845,43.181
	c4.022,10.592,12.787,18.087,23.444,20.051c0.49,0.09,0.977,0.134,1.458,0.134c3.784,0,7.148-2.698,7.858-6.553
	c0.8-4.346-2.073-8.517-6.418-9.316c-5.186-0.956-9.335-4.599-11.385-9.997c-0.278-0.732-0.565-1.639-0.813-2.715
	c8.735,3.117,17.794,4.654,26.798,4.654c10.812,0,21.534-2.226,31.517-6.531c6.108,5.215,12.928,14.459,18.178,22.454H464
	c-2.87,0-5.52,1.538-6.944,4.028c-1.425,2.491-1.406,5.555,0.049,8.028c11.863,20.17,29.216,52.685,36.014,71.884l-10.588-3.529
	c-3.052-1.018-6.418-0.107-8.542,2.311c-2.123,2.418-2.591,5.874-1.187,8.769C473.004,283.906,490.602,320.454,495.008,348.568z"/>
</svg>