<svg width="95" height="95" viewBox="0 0 95 95" fill="none" xmlns="http://www.w3.org/2000/svg">
<g clip-path="url(#clip0_70_361)">
<path d="M87.0833 59.375V11.875H7.91667V59.375H0V71.25C0 74.3994 1.25111 77.4199 3.47811 79.6469C5.7051 81.8739 8.72555 83.125 11.875 83.125H83.125C86.2744 83.125 89.2949 81.8739 91.5219 79.6469C93.7489 77.4199 95 74.3994 95 71.25V59.375H87.0833ZM15.8333 19.7917H79.1667V59.375H59.0623L55.7096 63.3333H39.2865L35.9377 59.375H15.8333V19.7917ZM87.0833 71.25C87.0833 72.2998 86.6663 73.3066 85.924 74.049C85.1816 74.7913 84.1748 75.2083 83.125 75.2083H11.875C10.8252 75.2083 9.81837 74.7913 9.07604 74.049C8.3337 73.3066 7.91667 72.2998 7.91667 71.25V67.2917H32.2644L35.625 71.25H59.375L62.7277 67.2917H87.0833V71.25Z" fill="black"/>
</g>
<defs>
<clipPath id="clip0_70_361">
<rect width="95" height="95" fill="white"/>
</clipPath>
</defs>
</svg>
