<svg width="95" height="95" viewBox="0 0 95 95" fill="none" xmlns="http://www.w3.org/2000/svg">
<path d="M79.1668 39.5832C79.1668 63.3332 47.5002 87.0832 47.5002 87.0832C47.5002 87.0832 15.8335 63.3332 15.8335 39.5832C15.8335 31.1846 19.1698 23.1301 25.1084 17.1915C31.0471 11.2528 39.1016 7.9165 47.5002 7.9165C55.8987 7.9165 63.9532 11.2528 69.8919 17.1915C75.8305 23.1301 79.1668 31.1846 79.1668 39.5832Z" stroke="black" stroke-width="8" stroke-linecap="round" stroke-linejoin="round"/>
<path d="M47.5 51.4585C54.0584 51.4585 59.375 46.1419 59.375 39.5835C59.375 33.0251 54.0584 27.7085 47.5 27.7085C40.9416 27.7085 35.625 33.0251 35.625 39.5835C35.625 46.1419 40.9416 51.4585 47.5 51.4585Z" stroke="black" stroke-width="8" stroke-linecap="round" stroke-linejoin="round"/>
</svg>
