<svg viewBox="145.83783783783792 210.7874999999999 825.1351351351352 1168.9125000000001" xmlns="http://www.w3.org/2000/svg" overflow="visible" xmlns:xlink="http://www.w3.org/1999/xlink" width="825.1351351351352px" height="1168.9125000000001px"><g id="Master/Character/Bust" stroke="none" stroke-width="1" fill="none" fill-rule="evenodd"><g id="Body" transform="translate(147.000000, 639.000000) scale(1 1)"><g id="Body/Hoodie" stroke="none" stroke-width="1" fill="none" fill-rule="evenodd"><path d="M790.747889,715.54329 C810.073889,714.61029 802.300889,680.80529 800.913889,668.39029 C785.612889,623.04629 789.209889,573.57429 783.191889,526.04629 C779.442889,481.67829 774.625889,437.44829 770.573889,393.11429 C762.615889,303.12029 705.468901,119.916434 640.253589,90.4527903 C632.038589,54.4067903 598.107682,20.7585623 555.177749,20.7585623 C525.897749,-13.9004377 490.654889,-38.2927097 445.451889,-33.3677097 C426.771889,-32.5177097 408.656089,-12.7057097 390.757089,-8.87970967 C380.735089,-7.49770967 291.794889,-11.0547097 273.978889,-0.473709672 C261.568889,5.89829033 250.365889,17.6732903 254.014889,32.6642903 C259.836889,50.8262903 241.743889,31.1742903 204.000889,50.5592903 C127.037685,96.7824468 173.027685,158.618927 175.065685,160.534927 C127.037685,227.357927 85.058889,281.57029 65.635889,363.24729 C53.047889,423.88629 54.464889,486.48529 43.917889,547.43529 C40.193889,568.56929 34.480889,588.98029 28.298889,609.50329 C21.598889,636.36229 18.3410489,703.305961 14.6480489,703.903961 C7.92104891,705.574961 18.535889,719.38729 25.663889,719.39829 C223.287889,752.17929 424.025889,720.75629 622.711889,715.62229 C678.704889,713.67529 734.757889,713.22629 790.747889,715.54329 Z" id="Skin" fill="#d9cfc4"/><path d="M391.005505,49.9619361 C391.005505,70.9938224 464.035638,149.145838 489.239049,143.990015 C506.041322,140.5528 531.427969,118.136539 565.398988,76.7412327 L565.398988,49.9619361 L558.062162,20.8093272 C599.621816,22.274211 632.223459,55.2179668 640.253589,90.4527903 C704.816748,119.621798 761.472142,299.471587 770.320433,390.386754 L770.573889,393.11429 C774.625889,437.44829 779.442889,481.67829 783.191889,526.04629 C789.209889,573.57429 785.612889,623.04629 800.913889,668.39029 L801.004504,669.160424 C802.600969,682.144342 809.687369,714.62895 790.747889,715.54329 C734.757889,713.22629 678.704889,713.67529 622.711889,715.62229 C424.025889,720.75629 223.287889,752.17929 25.663889,719.39829 C18.535889,719.38729 7.92104891,705.574961 14.6480489,703.903961 C18.3410489,703.305961 21.598889,636.36229 28.298889,609.50329 L29.5707328,605.258477 C35.2594288,586.161541 40.4507165,567.111773 43.917889,547.43529 C54.464889,486.48529 53.047889,423.88629 65.635889,363.24729 C85.058889,281.57029 127.037685,227.357927 175.065685,160.534927 C173.027685,158.618927 127.037685,96.7824468 204.000889,50.5592903 C241.743889,31.1742903 259.836889,50.8262903 254.014889,32.6642903 C250.365889,17.6732903 261.568889,5.89829033 273.978889,-0.473709672 C291.794889,-11.0547097 380.735089,-7.49770967 390.757089,-8.87970967 C395.412787,-9.87488828 400.083154,-11.9516302 404.774302,-14.4949135 L403.960551,-11.7852106 C395.323696,17.1607061 391.005505,37.7433061 391.005505,49.9619361 Z" id="Jacket" fill="#9FD8E5"/><path d="M491.219189,166.43309 C491.311189,165.52809 492.531189,165.53009 492.625189,166.43309 L494.020438,179.90224 C495.718046,196.352315 497.352332,212.770376 498.537189,229.29709 C500.014189,249.90609 501.002189,270.51009 501.478189,291.16509 C503.138189,363.10209 503.468189,435.07709 503.608189,507.03209 C513.339189,506.35809 523.071189,505.70909 532.808189,505.08109 C539.414189,504.654424 546.020633,504.24509 552.627819,503.842424 L569.475189,502.82084 L569.475189,502.82084 L576.411189,502.39509 C581.098189,502.10509 586.423189,500.92509 589.700189,505.07709 C591.012189,506.73909 591.670189,508.89909 590.447189,510.87209 C587.626189,515.42309 583.293189,515.26409 578.392189,515.46109 C573.768189,515.64809 569.144189,515.83109 564.520189,516.00909 C554.611189,516.39409 544.703189,516.75709 534.791189,517.03509 C524.389189,517.32709 513.992189,517.56409 503.594189,517.74109 C503.488972,548.117612 502.232147,578.456327 500.873112,608.799315 L500.258189,622.45409 C498.595189,659.38009 496.806189,696.33809 494.265189,733.21509 C494.056189,736.23409 489.785189,736.22809 489.578189,733.21509 C486.716189,691.68609 484.828189,650.06809 482.956189,608.48309 C481.598189,578.33209 480.808189,548.17309 480.432189,518.01009 C479.057189,518.01909 477.683189,518.03809 476.309189,518.04309 C437.282189,518.21309 398.265189,518.38309 359.238189,518.01709 C359.303189,518.09409 359.367189,518.17109 359.410189,518.27309 C362.234189,524.94009 362.503189,533.44809 362.434189,540.60309 C362.355189,548.80909 361.250189,556.91509 359.360189,564.89509 C352.588791,593.483348 335.123141,619.088802 315.230705,640.258353 L314.581189,640.94709 C309.889189,645.90509 304.506189,650.88609 301.625189,657.20109 C298.682374,663.64909 297.66092,671.191302 296.208788,678.119504 L296.039189,678.91609 L290.361189,705.14209 C288.557189,713.47209 288.045189,725.62109 281.451189,731.63109 C275.299189,737.23909 267.149189,734.31009 264.254189,727.09009 C261.993189,721.45509 264.245189,715.26609 265.584189,709.63409 L276.075318,665.534056 C277.799164,658.342396 279.682775,651.103539 283.403189,644.64309 C287.214189,638.02609 292.801189,633.22909 298.502189,628.32109 C309.297189,619.02709 319.207189,608.38709 327.588189,596.86709 C335.966189,585.35109 343.126189,572.65709 348.147189,559.30909 C350.661189,552.62709 352.721189,545.68509 354.142189,538.68709 C355.493189,532.04609 355.481189,525.16809 356.926189,518.59809 C357.025189,518.14409 357.408189,517.83309 357.847189,517.69509 C357.743189,517.40209 357.902189,517.00609 358.312189,516.98009 L390.229732,514.929165 C418.601495,513.098909 446.972007,511.221818 475.318189,509.07709 L480.327189,508.71509 L480.327189,508.71509 C479.938189,468.47009 480.268189,428.21709 480.995189,387.95709 C481.661189,351.03809 481.675189,314.10909 482.773189,277.19509 C483.319189,258.87409 484.496189,240.59609 485.806189,222.31309 C487.146189,203.61509 489.291189,185.07509 491.219189,166.43309 Z M191.527089,380.49819 C191.187089,378.44819 193.766089,377.17819 194.955089,379.05319 C208.546089,400.47519 215.099089,423.74419 217.861089,448.81319 C220.301089,470.93819 219.582089,493.38219 218.367089,515.56519 C217.071089,539.22519 215.559089,562.87919 214.030089,586.52619 L211.680964,622.789315 L211.680964,622.789315 L205.786089,713.69819 C205.364089,720.20119 203.888089,726.11419 198.289089,729.13719 C197.580089,729.72919 196.841089,730.26019 195.980089,730.72019 C192.955089,732.33719 188.943089,731.52019 187.194089,728.41619 L187.895361,728.877502 C188.506209,729.26211 187.820289,728.72499 185.837089,727.26819 L184.154089,725.09019 L184.154089,725.09019 C182.931089,723.25219 182.150089,721.44519 181.836089,719.26019 C181.348089,715.86519 181.980089,712.14119 182.202089,708.72919 L186.066089,649.11719 L186.066089,649.11719 C189.071089,602.77419 192.580089,556.44419 195.225089,510.07719 C196.457089,488.46719 197.320089,466.83619 196.736089,445.18819 C196.154089,423.66019 195.057089,401.76719 191.527089,380.49819 Z M309.101031,-18.5571401 L309.855089,-18.6837097 C336.850089,-23.1677097 366.204089,-22.3287097 390.875089,-9.31570967 C391.079089,-9.20870967 390.986089,-8.86970967 390.757089,-8.87970967 L382.816201,-9.19684108 C357.67727,-10.1812856 332.616184,-10.7639954 307.898089,-4.85770967 L305.367671,-4.24815629 C296.465987,-2.07666619 287.170132,0.581203372 280.020089,6.46029033 C273.186089,12.0802903 269.783089,20.7492903 266.511089,28.7302903 L266.07348,29.7834895 C262.753654,37.6658132 258.551685,45.1413542 251.275089,50.0702903 C241.850089,56.4532903 230.515089,55.6712903 219.708089,56.5382903 C200.680089,58.0672903 185.123089,71.8572903 177.383089,88.7322903 C172.696089,98.9502903 170.697089,110.40629 170.301089,121.58029 C170.098089,127.26929 170.069089,133.18029 170.827089,138.83129 C171.069089,140.63829 173.303089,147.22129 174.442089,147.06329 C176.973089,146.71229 179.287089,148.03229 180.076089,150.05529 C186.328089,144.01529 192.760089,138.14929 199.399089,132.49429 C215.948089,118.40129 233.773089,105.62829 252.545089,94.6522903 C266.872089,86.2742903 281.984089,77.9742903 297.633089,71.6992903 C296.393089,71.6732903 295.170089,71.9192903 293.987089,72.5342903 C293.469089,72.8052903 292.954089,72.1552903 293.363089,71.7252903 C298.292089,66.5392903 304.196089,65.8012903 310.148089,67.1842903 C311.418089,66.7802903 312.689089,66.3892903 313.965089,66.0182903 C314.600089,65.8332903 314.916089,66.7082903 314.398089,67.0462903 L312.936089,67.9802903 L312.936089,67.9802903 C319.429089,70.1552903 325.804089,74.4302903 330.851089,77.8042903 C345.349089,87.4932903 358.110089,99.3382903 371.046089,110.96129 L373.398107,113.068393 C384.784663,123.235191 396.461283,133.114806 409.398089,141.27129 C416.170089,145.54029 423.283089,149.48929 430.744089,152.42629 C437.143089,154.94729 447.562089,156.53429 450.559089,163.29729 C453.223089,166.53329 452.110089,170.66329 448.990089,172.84129 C443.728089,178.63229 433.202089,174.89129 426.932089,172.47929 C419.373089,169.57129 412.050089,166.07629 405.066089,161.97729 C391.507089,154.01729 379.005089,144.12029 367.359089,133.59229 C355.196089,122.59629 343.723089,110.91529 331.893089,99.5742903 C326.767375,94.6602903 321.759946,89.6309434 316.626465,84.7242903 L314.048089,82.2822903 C311.428089,79.8252903 307.695089,75.9952903 303.704089,73.6772903 C296.185089,78.1622903 288.550089,82.4622903 281.099089,87.0632903 C270.698089,93.4852903 260.603089,100.37029 250.664089,107.48229 C231.530089,121.17329 213.398089,136.50729 196.565089,152.94329 C165.693089,183.08529 139.391089,217.50529 116.414089,253.95129 L114.669233,256.728789 C101.612441,277.589372 89.2649826,299.122758 80.510089,322.17329 C70.877089,347.53829 66.192089,374.21129 63.647089,401.13629 C61.121089,427.86829 60.269089,454.73529 57.446089,481.44229 C54.551089,508.83329 48.847089,535.61929 42.359089,562.35529 L40.8117302,568.69392 C34.9411204,592.638391 28.8818187,616.582885 25.864089,641.09229 C24.253089,654.18429 23.284089,667.45529 23.503089,680.65329 C23.723089,693.92829 25.809089,706.90929 27.492089,720.04429 C28.137089,725.07629 23.185089,729.27629 18.754089,729.94329 C13.658089,730.70829 9.28008896,727.45729 7.69608896,722.72329 C2.75808896,707.96629 1.86108896,691.65329 2.01608896,676.16429 C2.17208896,660.43929 4.17908896,644.81729 7.00308896,629.36329 C12.557089,598.96529 21.128089,569.19629 28.298089,539.16229 C34.617089,512.69029 38.858089,486.17229 41.144089,459.05329 C43.517089,430.91729 44.938089,402.68729 49.267089,374.75429 C53.540089,347.17829 61.580089,320.83829 73.705089,295.69329 C84.745089,272.79929 98.507089,251.25029 112.935089,230.36329 C130.456089,205.00029 149.699089,180.86529 171.209089,158.87529 C169.277089,158.79129 167.293089,158.16729 165.471089,157.03129 C159.897089,153.55429 157.301089,146.75329 156.503089,140.54329 C154.635089,126.01629 155.086089,110.85029 158.822089,96.6472903 C164.849089,73.7352903 180.491089,53.3772903 203.161089,45.1182903 C208.996089,42.9922903 215.199089,42.2162903 221.383089,42.0632903 C227.251089,41.9172903 233.660089,42.6822903 239.322089,40.8222903 C248.334437,37.8598661 252.197446,27.2456914 255.581237,19.1997793 L255.737089,18.8302903 C260.076089,8.57729033 265.284089,-0.210709672 274.682089,-6.61270967 C284.708756,-13.4443555 297.271362,-16.5511901 309.101031,-18.5571401 L309.101031,-18.5571401 Z M565.598589,21.9907903 C573.710589,19.1767903 583.852589,21.7307903 591.785589,24.1887903 C600.623589,26.9287903 608.790589,31.9747903 615.792589,37.9677903 C623.179589,44.2877903 629.284589,52.0917903 633.597589,60.8097903 L634.009945,61.6496832 C637.9494,69.7366025 642.435894,80.8385191 640.449589,89.7227903 C640.392589,89.9747903 640.327589,90.2177903 640.253589,90.4527903 C656.348589,98.3757903 671.212589,108.29979 684.156589,120.87779 C699.228589,135.52279 711.990589,152.18779 722.790589,170.19179 C765.684349,241.69931 773.233827,327.579182 778.299889,409.128087 L779.563387,429.805176 C782.313969,474.454103 785.533444,518.997318 793.895589,563.02979 L794.505713,566.208719 C803.444333,612.3112 816.239791,658.766004 814.943589,706.05979 C814.554589,720.22979 793.612589,720.13379 793.005589,706.05979 C790.719589,653.08679 778.357589,601.94079 769.986589,549.79579 C755.257589,458.05479 762.637589,363.47479 741.767589,272.65279 C733.577589,237.01079 720.890589,202.43779 702.773589,170.62279 C693.824589,154.90579 683.585589,139.71879 671.591589,126.15979 C661.272589,114.49279 650.547589,103.26479 638.488589,93.4567903 C634.634589,97.3167903 626.935589,95.3497903 624.923589,89.7227903 C623.541589,85.8557903 623.944589,81.3347903 623.057589,77.2837903 C622.234589,73.5247903 621.099589,69.7977903 619.587589,66.2577903 C616.573589,59.2027903 612.149589,52.4277903 607.042589,46.7177903 C601.525589,40.5457903 595.184589,35.4177903 588.089589,31.1837903 C580.945589,26.9207903 573.132589,25.6477903 565.598589,22.5327903 C565.344589,22.4277903 565.320589,22.0877903 565.598589,21.9907903 Z M597.114889,512.28569 C597.126889,511.91369 597.565889,511.73769 597.835889,511.98669 C600.679889,514.60369 602.398889,518.35969 604.491889,521.57869 C606.905889,525.29069 609.440889,528.92669 612.098889,532.46869 C617.424889,539.56469 623.353889,546.25269 629.329889,552.80569 C634.887889,558.89969 640.811889,564.73669 646.956889,570.23869 C653.614889,576.20169 661.075889,581.52069 667.124889,588.12269 C679.74668,601.89876 681.786273,620.806185 684.449169,638.559457 L684.740889,640.47969 C686.364889,651.01569 687.819889,661.57969 689.131889,672.15869 C689.769889,677.30469 690.405889,682.45569 690.925889,687.61469 L691.084712,689.24919 C691.548285,694.299869 691.673328,699.423763 688.772889,703.83669 C685.667889,708.55769 678.608889,710.21269 674.411889,705.68569 C667.200889,697.90869 668.552889,684.09469 667.614889,674.08969 C666.840032,665.816547 665.960848,657.55369 664.976708,649.303008 L664.475889,645.17869 C663.315889,635.79269 662.373889,626.21969 660.226889,616.99669 C658.333889,608.87469 654.726889,602.74469 648.808889,596.86069 C642.846889,590.93369 636.651889,585.40069 631.148889,579.01769 C625.311889,572.24769 620.046889,564.98869 615.302889,557.41269 C611.24531,550.93269 607.992795,543.880978 605.013074,536.837439 L604.518889,535.66369 C601.638889,528.79469 596.889889,519.85269 597.114889,512.28569 Z M701.227189,217.24119 C701.290189,216.28319 702.706189,216.26819 702.727189,217.24119 C702.906189,225.48119 703.078189,233.72119 703.249189,241.96219 C704.625189,308.36419 703.777189,374.92319 710.439189,441.09719 C713.581189,472.29819 719.367189,503.04019 726.062189,533.65419 C729.488189,549.31919 733.082189,564.94719 736.497189,580.61419 C739.825189,595.88319 743.394189,611.22619 746.034189,626.63719 C748.628397,641.783649 750.951677,657.046744 751.994512,672.387751 L752.123189,674.38919 C752.572189,681.82019 754.715189,692.75019 750.623189,699.33719 C746.189189,706.47319 737.700189,706.60119 732.949189,699.78919 C728.488189,693.39419 729.597189,682.01819 728.809189,674.38919 C728.008189,666.61619 727.161189,658.83719 726.199189,651.08219 C724.322189,635.95519 721.849189,620.86219 719.277189,605.83819 C713.920189,574.55019 706.150189,543.65619 700.415189,512.41819 C694.537189,480.40919 690.359189,448.17119 690.183189,415.58119 C690.008189,382.71419 693.487189,349.91119 695.243189,317.11619 C697.027189,283.80819 699.055189,250.52519 701.227189,217.24119 Z M387.546889,10.7074903 C389.329889,4.70449033 395.621889,0.951490328 401.759889,2.63749033 C407.384889,4.18349033 412.028889,11.0104903 409.829889,16.8514903 C407.429889,23.2254903 403.235889,28.6604903 399.699889,34.4534903 C396.433889,39.8064903 391.669889,44.0214903 388.342889,49.2794903 L392.009113,53.2320023 C393.843409,55.2036503 395.682889,57.1634903 397.542889,59.0894903 L403.937389,65.7133103 C408.917609,70.8609703 413.929189,75.9811903 419.081889,80.9504903 C434.233889,95.5654903 449.625889,109.70049 466.594889,122.21649 C470.457889,125.06449 474.350889,127.89649 478.352889,130.54849 L479.845142,131.537364 C482.590768,133.335008 485.654108,135.102084 488.970889,134.79749 C497.030492,134.057473 504.312615,125.498222 509.85101,120.170835 L510.140889,119.89349 C523.865889,106.83449 536.574889,92.5564903 547.685889,77.2044903 C550.152889,73.7934903 552.541889,70.3244903 554.867889,66.8144903 C549.495889,60.5394903 550.778889,48.2904903 550.482889,40.6804903 C550.273889,35.3294903 550.257889,29.9774903 550.228889,24.6224903 L550.214259,23.542654 C550.14882,20.076669 549.992576,16.7524591 552.241889,13.9004903 C552.372889,13.7354903 552.643889,13.7404903 552.810889,13.8274903 C555.891656,15.4418237 556.840955,18.1447848 558.155497,21.1767015 L558.292889,21.4914903 C559.892889,25.1304903 561.424889,28.8034903 562.974889,32.4634903 C564.597889,36.2954903 566.085889,40.1834903 567.593889,44.0614903 C568.295889,45.8654903 568.965889,47.6764903 569.620889,49.4974903 C570.019889,50.6604903 570.432889,51.8174903 570.856889,52.9724903 L570.956889,53.0614903 C571.516889,53.5364903 571.991889,54.0384903 572.400889,54.5564903 C574.119889,55.4164903 575.485889,56.9834903 576.126889,59.2854903 C577.521889,64.2964903 574.634889,68.3824903 572.059889,72.3594903 C561.599889,88.5194903 549.675889,103.91849 536.421889,117.88749 C529.837889,124.82749 522.912889,131.45549 515.702889,137.74249 L514.442459,138.834193 C507.965578,144.400073 500.933767,149.672409 492.283889,150.97449 C482.161308,152.497716 473.923015,147.463398 466.174191,141.664694 L465.400889,141.08249 C458.054889,135.52149 450.856889,129.76549 443.882889,123.74449 C429.663889,111.46849 416.136889,98.2874903 404.131889,83.8264903 C392.453889,69.7604903 380.910889,54.0324903 373.712889,37.1074903 C373.273889,36.0764903 374.427889,34.9974903 375.331889,35.8584903 C378.847889,39.2054903 382.230889,42.7344903 385.573889,46.3084903 C385.666889,41.0474903 384.695889,35.7414903 385.235889,30.4474903 C385.894889,24.0124903 385.704889,16.9034903 387.546889,10.7074903 Z" id="Ink" fill="#000"/></g></g><g id="Head" transform="translate(372.000000, 180.000000) scale(0.9978902953586498 1)"><g id="Head/Medium Bangs" stroke="none" stroke-width="1" fill="none" fill-rule="evenodd"><path d="M297.60207,145.1631 C182.512269,140.9631 72.5396269,218.3121 35.5126119,327.6411 C32.8221984,336.2171 41.1949165,344.2281 49.6432527,342.7781 C41.0028862,386.2841 59.8865246,444.8441 109.075124,451.0161 C119.150245,452.2871 129.2781,451.5551 139.367151,452.4801 C148.359738,453.3041 197.315514,480.8441 215.647936,487.2961 C254.243032,500.7781 351.364433,498.3091 389.999328,487.2961 C391.406223,490.4961 421.410841,367.4501 428.243337,329.3001 C430.734983,312.770703 407.96731,300.533226 409.646189,283.50001 C411.802769,261.620212 437.395394,234.943114 429.554715,214.1131 C408.887085,161.0971 348.905988,146.3041 297.60207,145.1631 Z" id="Skin" fill="#d9cfc4"/><path d="M240.4447,48.7877 C245.6147,49.2177 250.8147,49.9477 255.9247,50.9077 C271.4547,48.3677 287.5247,51.1877 302.5847,56.0777 C337.8547,67.5277 371.8047,87.4077 398.3847,113.3577 C412.0647,126.7177 423.2547,142.1077 430.1447,160.0077 C433.6447,169.0877 435.6147,178.7777 436.1847,188.4877 L436.248051,189.664413 C436.407996,192.886021 436.480589,196.749033 436.0957,200.5757 C437.3267,208.3007 438.4237,216.0887 438.5067,223.9017 C438.5457,227.5207 438.3107,231.1337 437.8707,234.7227 L438.0217,235.0637 L438.0217,235.0637 C437.3837,239.3487 436.6217,243.6157 435.7537,247.8607 L435.5367,248.1417 C435.4177,249.0047 435.2807,249.8657 435.1517,250.7267 C434.6797,252.9087 434.1867,255.0857 433.6637,257.2547 C432.5317,261.9517 431.2787,266.6177 429.9287,271.2557 C429.6927,272.0687 429.9197,272.7097 430.3627,273.1307 C429.3787,276.6607 428.3037,280.1647 427.1117,283.6307 C427.6967,286.6637 428.2877,289.6957 428.9147,292.7177 C432.1847,308.4377 434.9547,324.2577 438.6747,339.8877 C446.2147,371.6077 457.6747,402.8177 460.8247,435.4277 C463.2747,460.7177 459.2047,488.3677 443.4847,509.0277 C429.9347,526.8277 409.5547,537.3377 387.5447,540.1377 C377.0147,541.4877 366.2147,540.8677 355.9147,538.2077 L354.792469,537.911761 C349.632679,536.522837 343.069528,534.34839 338.2747,530.8477 C333.0747,529.0177 328.1647,525.6377 325.2047,522.3377 C321.1647,517.8277 316.7547,510.1177 317.8547,503.7077 C311.8447,504.1977 305.7947,504.3377 299.8447,504.3177 C285.1847,504.2877 270.3947,503.1277 256.2947,498.8677 C243.7147,495.0677 229.0547,488.7177 221.6147,477.2577 C221.2647,476.7177 221.8447,475.9377 222.4547,476.1477 C228.4647,478.2577 234.0847,481.1077 240.2847,482.7177 C246.3847,484.2977 252.4847,485.7877 258.7747,486.4377 C271.0723,487.7049 283.55422,487.534404 295.893108,486.925964 L300.128567,486.706027 C313.331436,485.998556 326.976615,484.990679 339.3247,480.0477 C344.1697,478.1097 348.6537,475.404575 352.742405,472.189537 L353.3847,471.6777 C355.5747,469.8977 357.8347,468.3977 360.1347,466.9777 C360.4647,466.5577 360.7947,466.1377 361.1247,465.7077 C366.3547,458.9977 371.9747,452.5277 376.6847,445.4377 C386.0447,431.3677 389.6547,416.7477 390.1447,399.9677 C390.6577,382.2557 390.7171,364.5194 390.92797,346.80254 L391.0047,340.8977 C391.2747,320.6377 391.3147,300.3077 392.8747,280.0977 C393.593367,270.708367 394.616922,261.362589 396.189278,252.084758 L396.5347,250.0977 L399.0747,235.7877 C399.6857,232.3407 400.0427,228.7887 400.8237,225.3567 C399.9457,223.9167 398.9307,222.5307 397.7537,221.2107 C396.6687,219.9937 395.5667,218.8127 394.4667,217.6397 L393.673969,216.939921 C391.861837,215.322794 390.305187,213.779551 388.845958,211.555076 L388.4937,211.0047 L388.4937,211.0047 C386.9267,209.1137 385.4487,207.1357 384.1427,204.9627 L383.9017,204.5407 L383.9017,204.5407 C383.5757,204.1317 383.2517,203.7217 382.9147,203.3177 C381.8677,202.0587 380.7697,200.8697 379.6347,199.7307 C375.6537,207.4207 370.0227,214.0817 362.0507,218.2457 C359.1677,219.7517 355.6507,218.4617 354.7057,215.2577 C352.3207,207.1697 348.6987,199.6487 343.9057,192.8377 C335.9027,206.1557 323.2127,216.5727 308.2577,221.6557 C304.5207,222.9257 301.2297,219.0057 302.1077,215.5047 C304.8057,204.7437 305.3427,193.8007 303.7577,182.9827 C298.1127,187.0167 292.2907,190.8157 286.3127,194.3377 C273.0097,204.6207 258.9147,213.8747 243.4107,220.5197 C239.8287,222.0557 234.4377,219.4747 236.0657,214.8737 C237.436271,210.9997 238.562828,207.061032 239.284437,203.016061 L239.4437,202.0807 C239.4487,202.0527 239.4507,202.0247 239.4547,201.9957 C203.54839,251.52738 116.473999,299.258616 109.790488,299.718287 L109.6087,299.7197 L109.6087,299.7197 C113.7827,303.7067 117.1517,308.6327 119.3557,314.2937 C121.670265,320.239363 112.231563,322.828208 109.790611,317.143124 L109.7127,316.9527 C105.9577,307.3067 96.6697,300.3927 86.5647,298.7577 C80.4567,299.8667 74.6837,302.8117 70.7447,307.2777 C62.9947,316.0677 62.9247,326.6677 68.2147,336.6677 L68.9908227,338.124743 C71.8547694,343.466936 74.8713667,348.821033 76.4847,354.6877 C78.4547,361.8877 76.9647,369.1877 78.2547,376.3777 L78.324799,376.758907 C78.9363716,379.955866 80.2570077,383.5927 84.0647,382.7177 C84.3587,382.6497 84.6427,382.5587 84.9257,382.4617 C85.7287,383.1017 86.6947,383.6307 87.8987,383.9817 C90.8467,384.8407 94.1037,384.4237 97.0377,383.7297 C99.8717,383.0597 102.6237,382.0087 105.2727,380.7787 C105.5657,381.5027 105.7467,382.2597 105.7647,382.9877 C105.8547,386.7077 104.3147,389.7677 101.9447,392.2577 C105.7247,397.0377 108.9547,402.2977 112.5947,407.1777 C117.8247,414.1777 123.1747,421.0277 128.8647,427.6577 C134.7847,434.5677 141.2347,441.0977 147.9247,447.2677 C152.6147,451.5877 160.3647,456.2077 163.3047,462.4777 C166.6847,463.5277 169.5547,466.1177 170.6047,470.3777 C172.5147,478.0977 173.0747,496.1877 171.5747,504.0377 C170.0847,511.8177 164.4047,516.6677 158.1247,520.7677 C156.3847,521.9077 154.4147,521.7877 152.8147,520.9377 C151.4047,522.3077 149.8147,523.5677 147.9947,524.6877 C141.2747,528.8377 133.4647,530.3477 125.7247,531.2177 C115.2747,534.5577 104.0047,535.4377 92.8647,533.3577 C89.2247,533.7877 85.5847,534.1777 81.9347,534.4977 C44.5947,537.7477 6.6347,534.9777 -29.7853,526.0877 C-46.4953,522.0077 -62.2743,514.5927 -76.9753,505.0677 C-102.3133,488.6507 -113.0373,442.5707 -98.3353,398.5177 L-97.1711884,395.043982 C-90.5462167,375.364354 -83.4019667,355.7877 -73.8253,337.4277 L-72.6819341,335.243602 C-63.8792931,318.497908 -54.1961333,301.7702 -41.3353,287.7977 C-34.8953,280.8077 -27.4153,274.4577 -18.9653,270.0177 C-15.7573,268.3337 -12.0123,267.1657 -8.3523,265.8407 L-8.27755,264.924825 L-8.27755,264.924825 L-8.1983,264.0097 C-7.9573,261.0757 -7.6503,258.1467 -7.2543,255.2247 C-5.7763,244.2967 -3.6903,233.5297 -0.7273,222.8987 C2.2397,212.2537 5.8877,201.7877 10.2767,191.6437 C17.5987,174.7197 26.7947,158.6657 37.4097,143.6017 C38.1677,142.0457 38.9367,140.4957 39.7247,138.9577 C48.6747,121.4677 60.2647,104.7877 75.2147,91.8777 C92.3747,77.0577 113.0447,67.8577 134.6147,61.3977 C156.9847,54.7077 180.3247,50.1277 203.6347,48.5877 C215.9047,47.7777 228.1947,47.7677 240.4447,48.7877 Z M76.8448,329.7682 C88.0748,322.4182 103.3748,327.4572 109.0648,339.3982 C113.1748,348.0482 99.5848,352.9182 97.4348,344.2982 C95.2948,335.6582 86.1048,329.4682 77.2748,330.7882 C76.6648,330.8882 76.2848,330.1282 76.8448,329.7682 Z" id="Ink" fill="#000"/></g></g><g id="Face" transform="translate(531.000000, 366.000000) scale(1 1)" fill="#000"><g id="Face/Smile" stroke="none" stroke-width="1" fill="none" fill-rule="evenodd"><path d="M146.586567,240.926554 C139.864291,238.184203 133.866322,233.609781 129.481228,227.766254 C127.956691,225.734803 127.561405,223.589624 127.881219,221.627583 C128.240828,219.421406 129.546036,217.4219 131.326046,216.080693 C133.111571,214.735331 135.345035,214.071832 137.504329,214.410065 C139.380629,214.703969 141.248396,215.731287 142.726594,217.861908 L143.035427,218.287981 C145.642441,221.814933 149.039621,224.708755 152.91047,226.573991 C156.641339,228.371775 160.813939,229.21087 165.131898,228.722919 C173.355732,227.793938 179.024012,223.346401 185.048774,217.30672 C185.795561,216.544195 186.542826,215.757766 187.293714,214.958678 C187.767915,214.234308 188.425986,213.768756 189.156624,213.524488 C189.967867,213.253272 190.885573,213.268617 191.726122,213.56195 C192.536835,213.844871 193.261572,214.380994 193.747527,215.094538 C194.209389,215.772704 194.47125,216.610486 194.386283,217.574143 C193.834826,223.833283 190.562474,229.419299 185.914235,233.805502 C180.751772,238.67694 173.908551,242.047034 167.465957,243.229031 C160.36811,244.531047 153.135593,243.598228 146.586567,240.926554 L146.586567,240.926554 Z M170.814304,144.367155 C178.365682,148.9572 189.871664,159.660291 181.748119,171.039573 C172.185929,181.073062 158.418535,169.568982 151.634201,164.366134 C145.343449,160.333898 138.275437,170.704507 144.112,175.412823 C193.135736,211.708059 213.030606,145.567387 174.633685,138.970386 C170.406047,138.243425 168.835891,142.947174 170.814304,144.367155 Z M82.9633,102.1464 C83.7976284,91.7901242 99.5703,89.4384 101.1393,99.6864 C102.5443,108.8664 100.8903,117.2994 96.7553,125.5644 C92.8043,133.4604 82.8737826,129.776544 82.1227826,122.586544 C81.1160984,112.948648 82.4443,108.588596 82.9633,102.1464 Z M203.027,97.5615 C205.226,94.6815 208.401,92.7155 212.205,93.8265 C224.09,97.2995 220.587,114.1725 216.413,122.3855 C214.145,126.8455 206.814,127.9765 203.501,124.0495 C198.101,117.6455 195.515,104.8565 202.38,98.5485 C202.566,98.2225 202.773,97.8935 203.027,97.5615 Z M96.5879,56.8305 L98.465271,56.501905 C104.27307,55.49746 111.4944,54.5323 115.6029,59.2015 C117.7819,61.6775 118.5319,66.2795 115.6029,68.6495 C110.4509,72.8195 104.7549,71.2035 98.5809,71.5565 C93.4929,71.8485 88.6029,72.6905 83.7019,74.0915 C72.9499,77.1645 64.1889,82.7745 55.0059,88.9345 C53.8009,89.7425 52.5709,88.2015 53.1459,87.0745 C58.4469,76.6915 68.7199,68.1625 79.0099,62.9635 C84.5019,60.1885 90.5119,57.8865 96.5879,56.8305 Z M192.192876,52.1793876 L193.629806,52.4734684 C209.267042,55.742077 229.583473,62.2713911 236.988459,77.6308459 C237.270623,79.8027272 236.97249,80.2682047 236.730054,80.5723213 L236.649336,80.6735209 C236.449568,80.9332186 236.290169,81.2912104 235.348782,81.5868073 C235.087547,81.5245653 234.823712,81.4586426 234.557082,81.3887687 C231.162766,80.499243 228.477205,79.2737961 225.877298,78.0022488 L223.058339,76.6134493 C219.787784,75.0098309 216.488352,73.4645766 212.991711,72.3238115 C205.52958,69.8898666 197.854137,68.1753043 190.059777,67.259767 C188.37041,67.0615005 186.743655,66.4913394 185.460262,65.5141761 C184.242065,64.5866523 183.311441,63.3024737 182.887128,61.5955207 C182.33722,59.3864508 182.495251,57.7140037 183.680513,55.7210991 C184.571756,54.2244705 185.846982,53.1871113 187.311265,52.5914244 C188.804038,51.9841473 190.503545,51.840982 192.192876,52.1793876 Z" id="Ink" fill="#000"/></g></g><g id="Beard" transform="translate(494.999934, 517.999659) scale(1 1)" fill="#000"><g id="Beard/None" stroke="none" stroke-width="1" fill="none" fill-rule="evenodd" fill-opacity="0"/></g><g id="Mask" transform="translate(400.000000, 480.000000) scale(1 1)" fill="#000"><g id="Mask/None" stroke="none" stroke-width="1" fill="none" fill-rule="evenodd" fill-opacity="0"/></g><g id="Accessories" transform="translate(419.000000, 421.000000) scale(1 1)" fill="#000"><g id="Accessories/Glasses 2" stroke="none" stroke-width="1" fill="none" fill-rule="evenodd"><path d="M372.3111,95.4577 C360.1701,108.0027 339.9021,111.6027 323.7491,104.8747 C282.2731,87.5457 302.5741,33.4957 334.5611,18.9807 C338.5571,17.9847 343.8941,15.6217 348.7611,15.0857 C349.2011,14.8697 350.1591,15.4947 351.3201,14.9037 C386.5911,18.8417 394.6231,73.5937 372.3111,95.4577 M238.5331,98.6687 C224.9161,116.7297 199.6001,122.3017 178.9161,113.9057 C138.0541,97.8137 152.5471,49.8847 180.5041,31.0947 C239.5611,8.9037 263.9481,65.3677 238.5331,98.6687 M149.9531,58.6507 C149.9151,58.6327 149.8771,58.6237 149.8381,58.6057 C150.0541,58.5107 150.2701,58.4157 150.4851,58.3187 C150.4151,58.5017 150.3391,58.6827 150.2711,58.8657 C150.1651,58.7927 150.0721,58.7077 149.9531,58.6507 M400.4231,39.1277 C397.0891,39.1347 392.2731,39.6827 389.5131,41.9957 C382.7071,19.0427 357.5851,-2.2003 335.7371,13.2897 C318.5321,18.8227 305.7651,31.0937 298.5091,47.4077 C285.4261,39.6257 264.8541,42.9487 253.5091,53.2397 C246.0791,28.6887 227.7931,20.0917 206.0281,18.8227 C182.2721,14.9317 158.5941,38.0027 151.2061,56.5107 C145.0631,55.8117 135.8841,53.8567 130.1051,57.6477 C92.5981,47.8117 27.0231,42.3887 19.3981,47.8537 C13.9641,49.9387 10.9821,62.7647 18.5721,63.4567 C25.1861,62.5177 17.8001,54.0587 24.4671,53.1357 C59.9901,50.9337 94.4751,58.0877 129.6221,61.0897 C132.7601,65.3107 142.8991,66.7227 148.3081,65.0267 C139.7891,96.4227 158.1791,117.7827 185.7341,124.1807 C228.4011,133.9817 265.5221,95.8137 254.3651,56.1137 C267.2901,49.6837 282.1571,49.9597 296.2371,53.3467 C272.7091,139.9367 412.1661,136.0517 390.3851,44.9627 C404.8801,52.1727 408.0281,40.5827 400.4231,39.1277" id="Ink" fill="#000"/></g></g></g></svg>